/* XPM */
static char *result[] = {
/* columns rows colors chars-per-pixel */
"64 64 63 1 ",
"  c #060707",
". c #0C0606",
"X c #0C0A07",
"o c #120606",
"O c #1A0505",
"+ c #150D07",
"@ c #1E0F07",
"# c #120909",
"$ c #1C0B09",
"% c #1E170B",
"& c #200F07",
"* c #2D0E06",
"= c #210C0C",
"- c #2D0F09",
"; c #330B06",
": c #390D07",
"> c #360A0A",
", c #3D0D0A",
"< c #25150B",
"1 c #29160C",
"2 c #32160D",
"3 c #3B130C",
"4 c #34190F",
"5 c #361A10",
"6 c #440000",
"7 c #4B0303",
"8 c #440D0C",
"9 c #540505",
"0 c #5A0707",
"q c #530907",
"w c #570B0A",
"e c #5C0B0B",
"r c #45130E",
"t c #4C130E",
"y c #53110E",
"u c #5A100E",
"i c #4A1611",
"p c #4D1A14",
"a c #501712",
"s c #5A1210",
"d c #521B15",
"f c #511C18",
"g c #650B0B",
"h c #6A0D0D",
"j c #6E0F10",
"k c #661111",
"l c #6D1414",
"z c #6F1817",
"x c #6F1818",
"c c #761717",
"v c #781717",
"b c #701917",
"n c #791718",
"m c #731B1A",
"M c #7B1A1A",
"N c #7A211F",
"B c #7C2424",
"V c #831F1F",
"C c #851F20",
"Z c #852020",
"A c #892424",
"S c #8D2728",
"D c #8C2828",
/* pixels */
"3aaaatt88tttyadaggugkugkgkgukgeq7geeugeggukgekgeggekegegugeekee3",
"dVVVMncccvMVMVVVVVZVVVVVNVVMMMMeemvvMnMmnVVMvvncbcmcnnnnvvvvmnna",
"dVVVnccnccVVVVVVVVVVVVVVVMncvvveevvvnmccnMVMvcchhhcccccnvvvvvvna",
"dVZMcncccMVVVVVVVVVVVVVVVvvcbvveeMvvnccccnncvbcggggcncccvbvvvvna",
"dAVnncnccnVVVVcMVVMVVVVVnvvvvvvyyncncccccccccchhg90cccccvvccvcna",
"yVMncnccccVVVcccMVMVVVVcvvvMMvvitncccncnncncch09967hccccvncnbcna",
"ynnccjcncnVMcccccMVVVVccvvvMVNniivccccccnccccg76666ghcccvvccccct",
"inncgghnncncnccMMVVVVVVcbvnVVMviivnccclchchch0666667ghhccbccccct",
"ycnjg0gjcvcccccVVZVVZVVvcMVVVNcpivvvvlghgghgh96666669gghhcnccjha",
"tvcj97ghbccccnMVVVVVVVNMcMVVVMcrivvbvjhghg99907666666ggggcccccna",
"tncj99hhhccccMVVVZZVZVvccVVVVMvpivvvvjhgh0667gg066667ghhhccccnca",
"tnccgghhhcccccMMMMVVVMcvcMVVVVviivvvvcjhgg99ghjhg967ghhghcccccna",
"tnnnjhcljvMVnccccccMVNvccVVVVMviivvbvvbjhghhghncjg69hlchhcvcncca",
"iMccjjccvMVZVccccccMMMcccMVVNvMiivvvvvvjgg99ghhch07ghcchgccvcclt",
"tnnnjbnnvMDDZVMccccccccvvVVVvcctinvvvvvjh9669gghh97ghcvjhvvvchh8",
"*rrrrrrrripftdptuegeeeutppdtiit21iiiiiiq9966699999990eeytiiirr8*",
"rrrrrrrtttirrit27eeeeeyitpddpdapiiiiiiiykgseeee770eee0eyipffdddp",
"nnnvnnMVVVMnnnctuMvvvvcncVZZVZVVvvvvnMMVMVMvvvvegnncnnMvnMZZVZVV",
"nccvvMVMccvcnvvtunnvvbvvcMVVZVVMbvvvnMVMmnvvvvvegMcvccvvnMVVVVVn",
"nnvvvvMvvcccvvviunncvvvvcMVVNMMvvvvvvnMvncvvbvveemvvbvvvvMZVVMMc",
"ccccvbvvclcvncctyvvbvvbvcVVVMccnvvvvccncccbcvvveemvvvvMvcMVVnvvv",
"nnccvvvvljjccccauvvvvvMMVVVVnnccbvbvccccchhccbveenvcvvMMVVVVnvvv",
"cccccckcvbhcvvntwvvvnMVVVVVVMcccvvcccchccchnvvveencnbMVVVVVVvvbv",
"cnbcccgcvvcvvvntyvvvnMVZZVVVNMccvvvncjhccccnvvveencccMVZAVVVNnvv",
"ccnccjhccnvcccctencccVVVDVVcVNccbccccjgcccccccneecvvcVVZDVMMVMvv",
"ncbjhhhjcjjcncMticnccVVVVVccMvccnccjjhhjccjccnneenbvnVVVVVvvMvbv",
"cchhhghghhhnncciicccVVVVVVMcbvvvcjggghhghhhcccneevvvMVVVVVnvvbvv",
"cjgg0ghgghcccccrpMvvMVVVVVccvvvvcchg0gghhhjcncc0unvnMVVVVVnvvvvv",
"cchg9ggghhccchhrpMcccNVVVVcccncccchg9ghgghccclh9gMnvvMVVVMbvvvvv",
"ccchgghgghhhhh0;dZMMccMNVcnnccccccchgggghgghhh96kVMMnnMNMMnvvvvv",
"8,8>>>:86:;:88;<4ddptprrrrtitpipttt99909997999669kkueeeeutpiipii",
"..##oo+&@@&<&<<<1<1111<@&&@<111%<<267677767677676767767761<<<<<<",
">llzzlkkkzlzzmmmmmmmmmbzzbzxmbN3rzzbclcjbnnvbcclcclclbclcgkklzlr",
"pVZZnnnncMMVVCVVZVZVVVVVVNMvvvniivvvccccnVVMcccchlccvvcccccnnnna",
"iCVMcccccvVVVVCCVVVVVZVVVnvvvvviivvvvncccMMnccchhghccvcnvvvcvvna",
"iCVMvvnccvVVVVMVVVNVVVVVMnvbvvviivvbvcccccnccchgg0gcncccvvvbvvna",
"iCCncccccmVVMMvMVVMVVVVMvvvvMvvitnccvbcccccnchggg69hvvccccvvvvvp",
"8MnncccccMVVMccmnMVVVVMvvvvmVMviicncvvcncccccg96667gccccncbvbvvy",
"8cnxhhcccnvvcvccnVVVVVmvvvnVVMviivcncncccccccg666660gjcccvvvccvt",
"8cccgggcnccncccMVVVVVVVvvnMVVMviincncbhhhhhhg96666660hhhjcvcnckt",
"8ccj07gjccccccmVVVVVVVVMnMVVZMnttnccnjhghhggg96666667ghghcccccjy",
"8ccj97ghjcccccMCVVVVVVMnnMVVZMntucvvcjghg0767g0966666gghhbccncnp",
"8nncg0hghccccMCCVVVVVMvvcMZVVVneevvvcbhgh0679ggg96660hhghcccvcca",
"8cxcjhjjhcMMvcccvvMNVMvvcVVVZMceevvvcnchggggghcch069hhjhhcccvcna",
"8nnxjjccccCCMvccvvvmVMvvcMVVVMmewvcccccjhgggghcccg70hcchgcvbvcct",
"8cnnjjccvMCACMccvvnvnvvvcVVVMcM0evcccccch0760hhhg97ghcchhcvvvbht",
">lllkklllxBBmmclzllzzzzzbmMbzzc9wbbcbcjgg9666gggg09ggbljklzzle0:",
"oO$===$$====211111241441445428q7777979777977777777777q8242442222",
"kllllllcmxmllll3rlzzzlzzlmNNmMNMlclclclvMMnccbl00clcbclllbNNNNmm",
"nnnxvMBVnMvmncMrpnvvvbvvbMVVVVVMcccccMVVMMncccceeMcccccnnMZVVVVM",
"cxnccMMcccccmccrpncbvvbvvVVVVVMvcccvcMVccccccccegncccnccnMVVVVVn",
"vccncccccccnvcMrtncvvvvvvMVVMMMvcvccccccccccccceecccccnnvMZVMvnn",
"cncccmccjjccvcviivbvvvnnMMVVccbcccvcccccljccvvvuemcccMcmMVVVvvvv",
"ccncvccccljcvcciivvvvnVVZVVVncvvvcvcccccclhcvvvuencccnVVVVVVmvvv",
"nncccjjcvcjcccciivvbvMVVZVVVMnvvcccccjhccclvvcveeccccMZZVVVVMvbv",
"cccnvlhcccccccciinvvvMVADZNVVMvvcccMcjgcvvvvccve0McMcMZZDVNMVMvv",
"ccccchgcvcccccnrivbvvNVVZVMMNvcNcMvcchhcvcccccveevvbMVVZAVMmMMcc",
"cchhhghhljhccnniivvvMVVVZVcccccccchhggghjjjcccveevvvMVVVVVvvnnvv",
"cjgggghghhhcccniivvvMVVVVVMccccccjhggggghgjcccveevvvMVVVVVvvccvv",
"vjgg9gghghcncccrpMvvMVVVVVvccccccchg9gghghccccl0uMvvnVVVZVcvnbvv",
"vchh0ghhghhcjhg:pVMvcvMNVMcvccccccjggggghhjjchg7kVMvvvNVVnnmcccn",
"bjlggeeee09ee06*iNMblclNlzlzzbbzzzlk0g0geeweee66eMMbzzlbzzzzzzlz",
"###+@&&@##.X#@<<<276771111111111<111<111<<<<<;666777:111<11111<1",
"  XX+@++X   X+@%<*6666*%%%%%%%%%%%%%%%%@%%<%%*666666*%%%%%%%%%%%"
};
