/* XPM */
static char *result[] = {
/* columns rows colors chars-per-pixel */
"64 64 235 2 ",
"   c #060707",
".  c #0C0807",
"X  c #150D07",
"o  c #120909",
"O  c #1A0907",
"+  c #1E170B",
"@  c #1C1C1B",
"#  c #171916",
"$  c #260E08",
"%  c #3C0D0B",
"&  c #350B08",
"*  c #25150B",
"=  c #29170C",
"-  c #32160D",
";  c #37170E",
":  c #1D2218",
">  c #22251D",
",  c #262B1C",
"<  c #292F1E",
"1  c #2B331D",
"2  c #2A371C",
"3  c #242423",
"4  c #262924",
"5  c #2A2C24",
"6  c #2C2C2B",
"7  c #282727",
"8  c #2E3323",
"9  c #2E312A",
"0  c #313625",
"q  c #333B25",
"w  c #32342C",
"e  c #353A2C",
"r  c #383E2C",
"t  c #2F3031",
"y  c #343433",
"u  c #373933",
"i  c #3A3B35",
"p  c #3C3C3B",
"a  c #383738",
"s  c #302F2F",
"d  c #440101",
"f  c #4B0303",
"g  c #440E0D",
"h  c #480804",
"j  c #540505",
"k  c #5D0B0A",
"l  c #550907",
"z  c #44130E",
"x  c #4B130E",
"c  c #53110E",
"v  c #4C1511",
"b  c #4C1A13",
"n  c #501712",
"m  c #531B15",
"M  c #640C0C",
"N  c #6A0C0D",
"B  c #6A120E",
"V  c #65120D",
"C  c #6E0F10",
"Z  c #651211",
"A  c #6D1414",
"S  c #6F1815",
"D  c #6F1E1B",
"F  c #761617",
"G  c #781717",
"H  c #731A16",
"J  c #791C16",
"K  c #751C19",
"L  c #7B1A1A",
"P  c #791718",
"I  c #4B351C",
"U  c #4A351B",
"Y  c #53351C",
"T  c #54391D",
"R  c #5B3B1D",
"E  c #5A351A",
"W  c #552E1B",
"Q  c #6C2915",
"!  c #652818",
"~  c #7C211E",
"^  c #742E1A",
"/  c #742915",
"(  c #643C17",
")  c #6C3E15",
"_  c #633D1C",
"`  c #6A3E1C",
"'  c #65361B",
"]  c #753D14",
"[  c #7A311C",
"{  c #763817",
"}  c #6E260C",
"|  c #4C3A23",
" . c #45392A",
".. c #4D3B2A",
"X. c #493723",
"o. c #533C22",
"O. c #5B3C21",
"+. c #513D2C",
"@. c #443F3B",
"#. c #643F22",
"$. c #6B3E23",
"%. c #6D3221",
"&. c #753222",
"*. c #7E2320",
"=. c #3C432C",
"-. c #384128",
";. c #3D4135",
":. c #7D420D",
">. c #6D4116",
",. c #6B431C",
"<. c #64411C",
"1. c #744315",
"2. c #7B4414",
"3. c #73451B",
"4. c #794618",
"5. c #7E4918",
"6. c #7B4919",
"7. c #46462D",
"8. c #574021",
"9. c #5C4122",
"0. c #59452C",
"q. c #434933",
"w. c #43433D",
"e. c #454836",
"r. c #574736",
"t. c #4E523D",
"y. c #644424",
"u. c #6B4523",
"i. c #62452A",
"p. c #6C4825",
"a. c #714422",
"s. c #744C28",
"d. c #77512C",
"f. c #624D3A",
"g. c #6B523C",
"h. c #67513C",
"j. c #775539",
"k. c #714E31",
"l. c #1A1A57",
"z. c #2D2D48",
"x. c #3D3D44",
"c. c #373748",
"v. c #383852",
"b. c #2A2A53",
"n. c #444444",
"m. c #454549",
"M. c #4B4B4B",
"N. c #4C4B44",
"B. c #4F5048",
"V. c #58554B",
"C. c #484852",
"Z. c #545453",
"A. c #5B5553",
"S. c #5B5A54",
"D. c #5B5B5B",
"F. c #565757",
"G. c #524A4A",
"H. c #6B5642",
"J. c #685745",
"K. c #745E4A",
"L. c #765B44",
"P. c #645C59",
"I. c #5F605F",
"U. c #7A624C",
"Y. c #78614A",
"T. c #62615F",
"R. c #6B6559",
"E. c #7C6754",
"W. c #6A6149",
"Q. c #636363",
"!. c #6C6C6C",
"~. c #6B6863",
"^. c #766D64",
"/. c #79746A",
"(. c #737373",
"). c #7C7B7A",
"_. c #831F1F",
"`. c #813F0E",
"'. c #83241E",
"]. c #833719",
"[. c #851F20",
"{. c #832220",
"}. c #8B2626",
"|. c #84450C",
" X c #8D480D",
".X c #834A14",
"XX c #884812",
"oX c #955513",
"OX c #924F0B",
"+X c #885933",
"@X c #87684A",
"#X c #836B55",
"$X c #866F59",
"%X c #8B6E59",
"&X c #8C745D",
"*X c #83725D",
"=X c #92755B",
"-X c #8B7867",
";X c #947B64",
":X c #957D67",
">X c #847E79",
",X c #907670",
"<X c #AE706F",
"1X c #C67570",
"2X c #9B8166",
"3X c #9C836C",
"4X c #96816B",
"5X c #9B8471",
"6X c #978576",
"7X c #A0876E",
"8X c #A3896F",
"9X c #A08770",
"0X c #A48C74",
"qX c #A88F77",
"wX c #A99077",
"eX c #A6917B",
"rX c #AC947B",
"tX c #B0977F",
"yX c #868584",
"uX c #9A938C",
"iX c #998E82",
"pX c #AB9885",
"aX c #B49C84",
"sX c #B69F89",
"dX c #AD9F91",
"fX c #BBA38C",
"gX c #B4A08B",
"hX c #BDA993",
"jX c #BAA795",
"kX c #ACA094",
"lX c #B9AEA4",
"zX c #B0A9A2",
"xX c #B6B4B1",
"cX c #C0A78F",
"vX c #C0A890",
/* pixels */
"; n n n b b x g h v v n x n n n k Z M Z M M M M M M Z k M M Z f f M k M k M k k M k Z M k Z M k M k M M k M k k Z k k M k M c ; ",
"m _._._.L G F F G P L L _._._._._._.L {.[.*._._.*.*.L L L L L k k P P P P P L L L _._.L G G P P G H G P F L L G G G G G L H L n ",
"m _._._.G G G G G P _._._._._._.[._._._.[.[.L [.[.L L G G H G k k P P H P P P K G L '.G H G H N N N A G F G G F G H G G F P P n ",
"m _._._.G G G F F P _._._._._._._._._._._._.{.[.L G G G G G G k k P K G F P H P G G G G G G A N N M N F G F F F G G G G F F P n ",
"m _.[.L F F F G G G _.[._._.F L _._.L _._.{.{.L L G G G G G G v c P P H P F P F G F F F F F N N M f k C G G F G G F F G P F P n ",
"n _.L F F G F G G G _.{.L G G P L _.L _._.{.L G G G P L L G G v z P P G F F G F F F G F F N k j j d f M F G F F G G F F F G G n ",
"c G F F F C F G G G L L G G G G F L _.[.[._.L F G H G L [.L G b v G P G G G H P G G G G F M d d d d d k N F F F G G G G F F F x ",
"c G G F N M N F H S H K K K K G ~ ~ *.{.'.'.L K K K K *.*.~ H b b K H S K H H A A A H H B k h h h h h l N B S A F G F F F F F x ",
"x G G F M k N B Y Y o.#.#.u.#.$.a.a.u.u.a.$.$.#.9._ $.#.u.y.R I U Y Y O.y.#.$.#.y.u.` $.u.` #.#.O.R R _ #.u.#.! N F F F P C N n ",
"x G G C j d M B $.i.u.p.u.a.p.i.p.4.3.a.p.a.4.u.p.,.4.u.u.u.u.u.y.u.y.u.a.u.u.p.u.u.4.4.p.p.3.4.a.p.,.4.p.i.y.Q M F F F F F G n ",
"c G G C j j N V ,.p.a.4.4.1.u.u.p.3.5.5..X.X2.4.4.,.u.u.p.u.4.4.3.u.u.a.4.4.1.u.u.p.6.6.5.5..X2.4.4.>.<.u.u.,.} M F F F F F G n ",
"x G G C N M N B ] 2..X3.i.0.y.9.9.,.,.p.s.u.R y.+.U T i.i.#.y.0.r.0.0.#.R _ R ' T Y _ p.,.<.u._ O.+.+.o.] |. X/ N F F F G G P n ",
"x G G G C N G F |.4.5.O.y y u e 0 w.m.n.Z.N.8 B.i # 6 @.a a a a x.@.p s y s a p y 6 e @.a w w a ;.0 6 a 3.OX.X{ M F F F F F P n ",
"v G F G C N G J ] 4.4.O.3 7 e e 9 ;.e.q.w.e.2 q.e @ y a p ;.C.I.!.Q.T.Z.M.@.a p p y 6 y n.a 6 6 a q.0 s ,.oXoX{ N F G F G F F x ",
"x L G P F A G L u.u.u.Y @ @ 4 6 9 0 8 q 7.=.< 5 5 < w p n.D.!.!.D.Z.F.F.D.F.Z.M.M.n.6 5 y x.a 6 6 u 7.w 9..X5.Q N G F F G N M h ",
"& z z z z z z x a.i.u.| 3 , , 3 , q > , 1 q 5 3 6 5 9 n.Z.D.Z.m.m.M.Z.Z.M.Z.Z.Z.D.Q.M.w 8 w w.a 6 9 7.t.,.:.p.! x x b v x % g = ",
"z z z z z z z b u.y.u.X.3 4 > @ > 8 7 4 5 0 8 5 4 9 n.I.I.Z.n.n.M.N.M.M.n.w.n.w.M.Z.F.M.a 9 w x.p q.;.q.0.3.p.! b b m m m m m b ",
"P P G G G L L {.3.3.3.Y @ : 3 @ 3 6 s 5 5 w 8 < 5 p I.!.Q.I.F.Z.M.n.n.n.m.m.n.m.M.n.n.m.M.a 6 y ;.m.Z.n.R 1.1.^ G L [.{.{.[._._.",
"P G G G F L _.L ) ] >.U 3 6 6 6 6 y y 6 6 9 8 5 =.D.!.(.!.Q.F.M.M.m.m.n.N.m.m.n.m.w.y y n.m.w 6 u p Z.T.0.>.1.^ F L {._._.[._.P ",
"F G G G G G L K 3.3.3.Y 5 8 7 6 y y 6 6 y u q q M.!.(.).(.!.I.Z.N.m.N.m.n.n.n.n.n.n.y y y N.y , 1 w n.V.d.OX1.Q F L {._._.L L G ",
"G G G F G G H K ( 1.4.Y 5 6 3 6 a y t t y r q -.C.(.(.).(.!.Q.F.m.m.M.m.n.n.m.w.n.p 6 w w M.n.4 3 6 p n.<.|.>.Q P L _._.L F F F ",
"G G G F G G F J ] ,.y.U 6 y t 6 w 9 y a p e -.;.F.Q.(.!.(.(.(.I.M.N.n.M.Z.M.m.n.n.x.p y 7 n.M.6 3 5 9 a +.p.p.[ L _._._.F F F G ",
"H G F F F F C S ' >.>.U a p a t 6 8 e y i q =.N.I.I.Q.Q.Q.I.Q.!.Z.M.N.M.B.M.m.m.M.M.M.a y p M.6 7 u u u  .y.p.&.[.{._._.G F G G ",
"G G F F F A N H 9.9.9.| n.y 6 6 9 p 9 2 q q ;.S.F.F.Q.D.I.!.(.!.D.Z.Z.M.Z.Z.M.Z.Z.M.Z.Z.M.m.m.y 6 p n.x.o.u.9.&.}.[.{._.L L G G ",
"H G G H G A N F y.y.y.I y w 6 7 t w 9 5 q -.n.D.Z.D.~.!.).yXyXyX!.D.Z.Z.F.Z.M.Z.F.M.D.Q.D.M.M.w.6 y m.w.T u.8.%.}.[.L L _.L G G ",
"G G F C N N N B R o.8.U 7 6 5 8 q q r e =.q n.F.D.I.R.).6XpXuXuXyX(.I.F.F.Z.Z.F.D.M.D.Q.Q.F.F.M.y y y y ..y.9.%.[._.G G L G G G ",
"P C M M M N M N R T 9.U @ 5 6 8 8 8 q r S.B.;.Z.D.R.;X5XrXtXaXaXuXyX!.F.D.D.D.D.D.D.T.~.I.F.I.M.y y s 6 o.y.,.[ [._.P G G H H G ",
"P C N M j M N V 1.3.,.U 6 p w.i 9 5 0 q.,X~.w.V.K.&X8XtXtXaXfXfXsXuX).!.Q.Q.Q.Q.Q.Q.Q.T.T.I.I.M.y a a y ..u.,.[ _._.G F G G G G ",
"F F C M j M N M _ u.p.U w Z.F.M.m.p =.W.=X#Xr.L.$X2X0XtXaXgXfXtXaXeX,X/.!.R.!.!.!.Q.Q.P.V.V.F.M.p p p y ..,.,.[ _.L G G G G H P ",
"P F C N M N N C %.$.y.| u Z.Z.M.M.N.w.R.:X&XH.&X2X0XrXaXgXaXaXfXaXrX0X;X&X$X#XE.W.J.R.G.0.N.M.a a a p a T 3.1.[ L L G P G G P P ",
"g % % % & & & g I O.9.I 6 p F.w.7 ;.B.Q.4X$X#X8XrXwXwXaXfXaXfXaXgXtX0X9X3X:X$XK.h.h.J...0.w.p 6 w 9 y a o.1.) ! k v v b v v v v ",
". o o o o o O $ T R ( Y 7 p F.m.: 8 t.~.5X5X2XwXrX8X2X=X8XaXaXgXgXpXrXqX0X3X&XU.f.f.r.X.0.n.3 3 8 4 6 y o.>.4.} d = * * * * * + ",
"& A A A S A Z Z R >.>.T 4 x.m.n.4 2 > A.0X7X2XtXrX:X$XK.K.#X0XaXaXtXwXqXqX5X;X$XL.h.r. .r.p # @ 3 7 3 6 T u.a.~ S Z Z Z A S S z ",
"b [.{.[.G G L H Y I o.X.3 ;.p w 8 > # F.pX7X0XaXfX3XK. .+.J.#X8XwX0X0X0XqX0X:X;XE.L.0...B.a @ # @ > 4 7 | p.u.! F L G G G G G n ",
"v [.[.L G G F J ,.y.p...3 n.8 < 0 # @ S.kX0X0XfXvXfX0XJ.J.U.=X2X3X:X;X;X4X3X5X:X&XK... .e.a y 6 3 : : > U y.p.^ F L F F G F G n ",
"v [.{.L G H G G u.p.p.o.7 y 4 5 3 # @ i ^.;XwXfXjXvXaX2X3X5XwXrX3X$XJ.r.N.J.K.&X&XU.....R.A.y 6 6 5 3 < | u.u.^ F F F F F G G n ",
"v [.[.P F F G H ] 2..Xi.3 : , 2 @ # : 7 8 R.pXhXlXxXhXfXaXfXfXaX3XE.A.y 6 w.H.@X;XU.0.K.$XJ.u 6 5 6 8 w E |.XX[ G G G F G G G b ",
"g L P P F F G J |.2.6.j.4 : , 8 : @ , 4 5 ~.aXhXxXxXlXfXvXvXvXfX0X:X/.P.P.P.K.&X;XL.g.+Xk.w 8 e w 6 8 6 ) OX.X].G G F F G G G n ",
"g P P P C N H G 2.3.3.L.5 , < 8 > : 8 7 5 /.aXfXlXxXhXfXfXvXvXfXwXeXiX:X:X3X9X9X-X#X@XY. .5 8 0 w s 9 6 <.oXoX`.G G F G F F F x ",
"g P P A M M M F u.y.u.H.9 2 : 4 3 , 5 7 6 /.pXfXfXfXaXaXaXhXlXkXwXtXsXdXaXaXpX5X=X2X*Xt.=.r -.q 8 5 6 t R XX5./ C F F G F F C x ",
"% P P C j j M C a.u.u.J.0 5 : : 4 1 3 6 6 /.pXaXtXrXrXtXwXtXjXdX0XrXfXzXfXaX0X:X7X*Xa y w 8 q e r a s 6 ( 2.p.Q N F F F G F C v ",
"g P P C j f M Z u.y.i.J.p 5 : 6 t e y a p -XrXpXwXwXtXgXwX2X;X=X3X0XaXjXfXaX5X-X$Xi 5 y e 7 5 8 q e a a o.3.a.Q M F P F G G F b ",
"g P P A k k N N ] 3.3.g.w.6 @ 3 n.Z.p 6 D.5XqXtXrX8XrXtXtX8X;X4X0X8XwXpXrXqX^.N.7.q 5 > e y 9 8 8 q 9 6 R 1.1.Q N F F F G G F n ",
"g P P F N M F A ) >.>.g.p 6 3 y M.M.p I.>X3X3X0XtXrX0X8X7X8X8X8X4X:X3X3X3X-X@.s u =.r q r u t 9 5 0 p s | ,.>.! M F F F G F P n ",
"% P P P C C F J ` 4.a.g.u t n.C.n.M.B.(.yX,X4X:X0XtXgX8X;X$X#X&X*X&X;X=X-XP.3 3 e =.=.q =.q.w w s y p @.,.OX1.} N F H G F F F x ",
"g P P P C C G F ( 3.4.h.n.Z.C.m.N.n.n.F.>X:X;X&X;XrXtXwX7X:X=X:X3X3X-X$XV.w.y 5 y 8 q 4 5 r q.;.y y a a ' |.>.! N F G G P F N x ",
"% Z A A Z Z A S ] _ <.H.Q.Z.M.C.m.x.x.c.F.,X:X=X%X7XtXaXaXwX7X;X&X$XE.n.@ 6 m.a u 5 w r 4 7 w u n.p a 6 X.u.3.Q Z A S S Z M k % ",
"o O O $ O $ O * ' ) >.L.<XZ.M.v.m.x.l.l.z.A.:X:X$X$X;X7X8X3X&X#XY.K.R.p @ s M.m.;.e 5 q 8 7 5 6 y p p y I p.i.U - = ; ; - - - = ",
"C Z A A A A A D O.8.9.L.<XA.M.m.m.x.l.l.a c.^.4X:X&X$X#XE.U.K.U.E.E.E.M.7 p M.m.F.B.-.-.-.7 7 9 6 y p p T p.9.' S K ~ K K ~ K D ",
"P P P P G L *.~ #.i.y.j.V.G.x.b.b.m.m.c.z.b.B.).5X5X:X&X$X#X&X;X:X;X/.m.y n.M.x.I.).!.B.-.5 7 7 6 t y a T u.9.! G L [.[.[.[.[.L ",
"P P P F G G L H O.T 8.Y.<X<XG.z.c.N.x.w.n.x.m.S.yXiXrX0X0X7XqXwXqX5X!.x.x.M.C.v.C.!.yX6XF.;.7 6 6 y y y | y.9.! P L [.[.[.L [.P ",
"P H F P G G L H O.o.8.j.1X1XR.n.c.n.x.m.p a Z.Z.Q.>XdXpXrXqXqX0X:X/.n.c.M.V.B.M.C.-X<X<X6X).M.6 6 t a u 8.y.,.^ P L [.*.L P P P ",
"F F F F F P P F 3.1.1.s.+X+X+Xk.0.0.j.g.r.g.Y.L.L.L.#X@X#Xg.h.h.i._ R <.d.d.d.k.k.j.k.j.j.g.r.X. .....0.9.p.a.^ P *.[.[.L G H G ",
"F P P F F F F H ` u.y.u.` ) <.) >.:.:.5.6.u.,.y.y.u.<.y.y.p.i.#.u.u.,.,.y.u.,.,.<.>.] :.:.4.p.u.0.y.u.y.y.,.,.[ [.[.[.L P P G G ",
"F F H P F A N H $.$.y.u.u.2.2.,.y.R T T ) |.XX2.1.2.2.1.3.1.` $.i.$.y.y.u.u.2.4.,.<.( T R ) |.XX2.1.4.|.1.,.1.[ [.[.[.[.L P G H ",
"P F P P F C N H W W R u.` ] 3.` y.$.R E 1. XoX X|.{ .X] 4.] ` #.O.W T O.$.) ] ] u.$.y.R E >. XOX X`.2.] 2.2.1.[ }.[.L L [.L P P ",
"G G G C F N N C G K H G K J J b b K K K J '.'.'.{.*.K K ~ K H H F H F H F B B J G J K K J J ~ V V K K K K L *.*.}.[.L H L L G G ",
"G G N N N N N N C A N F F F F b v G G G L '.[._.[.[.L P G G G H P F N N M M N N C B N F G G F k k G G G L [._._.[.L G G G G G G ",
"G C N M M M M M N N N F F F G v v G G H L _._._.[.[.G H G H G G F C N M M M M N N M B G G F G k k G G G L {._.[.[.[.G G G H H G ",
"J C N M j M M N M N G G F H F z b L G G L _._._.{.L G G G G G G F H N M j M N M N N G G F F F j M L G G P _._.[.[.L G G G G G G ",
"G G B N k M N N N N C C C N M & m _.G F G G L [.[.L G G F G G F G J B M j M N N M N B C C N M f k *.L G G P _._.*.L G L G P P P ",
"C A A M k k k k k k l l k k d & b K L F A F A H S A A A S S S S A A A V M M M k M k l k M M d d k *.L H S S S S S S A S A S A A ",
"o X o O $ * O $ X . o o X O + * * - d f f f = = = = = = = = = = = = = = = * $ $ * * * * * & d d d f f f & * = * = = = = = = * = ",
"      . X X X X .       . X X + * & d d d & = + + + + + + + + + + + + + + + + + + + + + * $ d d d d & d & + + + + + + + + + + # "
};
