/* XPM */
static char * floor_xpm[] = {
"16 16 214 2",
"  	c #FFFFFF",
". 	c #F3F3F3",
"+ 	c #BCBFBB",
"@ 	c #B8BBB7",
"# 	c #6C875C",
"$ 	c #ABAFAB",
"% 	c #C1C2C1",
"& 	c #1F4F00",
"* 	c #91988F",
"= 	c #9BA696",
"- 	c #DBDBDB",
"; 	c #C1C1C1",
"> 	c #4D722E",
", 	c #F9F9F9",
"' 	c #EDEDED",
") 	c #CBCBCB",
"! 	c #002C00",
"~ 	c #566155",
"{ 	c #446037",
"] 	c #356111",
"^ 	c #54802C",
"/ 	c #275105",
"( 	c #224B06",
"_ 	c #466B27",
": 	c #508024",
"< 	c #41681F",
"[ 	c #2E5F00",
"} 	c #4D7E1F",
"| 	c #5A7150",
"1 	c #FBFCFB",
"2 	c #7B8678",
"3 	c #5A892C",
"4 	c #375E18",
"5 	c #3E6D11",
"6 	c #184000",
"7 	c #33600B",
"8 	c #295206",
"9 	c #527E2B",
"0 	c #2D5A06",
"a 	c #214B02",
"b 	c #46731F",
"c 	c #305B09",
"d 	c #366013",
"e 	c #436D1A",
"f 	c #D2D3D2",
"g 	c #AFB5AC",
"h 	c #244B09",
"i 	c #2B510E",
"j 	c #194201",
"k 	c #6B9D3A",
"l 	c #214906",
"m 	c #629333",
"n 	c #325F0A",
"o 	c #2B5507",
"p 	c #1A4202",
"q 	c #4D7727",
"r 	c #143E00",
"s 	c #254F05",
"t 	c #244E05",
"u 	c #414B42",
"v 	c #FBFBFB",
"w 	c #538322",
"x 	c #2B520E",
"y 	c #234D03",
"z 	c #609032",
"A 	c #609033",
"B 	c #234D04",
"C 	c #214A03",
"D 	c #1B4302",
"E 	c #1A4201",
"F 	c #44731B",
"G 	c #56832C",
"H 	c #315D09",
"I 	c #1F4702",
"J 	c #3D651A",
"K 	c #E1E2E1",
"L 	c #B4B6B5",
"M 	c #285205",
"N 	c #5F8E32",
"O 	c #1E4603",
"P 	c #3D651B",
"Q 	c #699C38",
"R 	c #4A7523",
"S 	c #497324",
"T 	c #2E5411",
"U 	c #1E4503",
"V 	c #2E560E",
"W 	c #3C6B10",
"X 	c #689244",
"Y 	c #184E00",
"Z 	c #285106",
"` 	c #224A06",
" .	c #335A14",
"..	c #224A07",
"+.	c #234A07",
"@.	c #36640D",
"#.	c #153F00",
"$.	c #5A8A2C",
"%.	c #1F4604",
"&.	c #35620C",
"*.	c #183F02",
"=.	c #626763",
"-.	c #1B4400",
";.	c #305612",
">.	c #204703",
",.	c #29500C",
"'.	c #2D5411",
").	c #365E17",
"!.	c #3D6D11",
"~.	c #2A500D",
"{.	c #1E4502",
"].	c #204903",
"^.	c #4D7825",
"/.	c #58862E",
"(.	c #456E21",
"_.	c #659635",
":.	c #436A2B",
"<.	c #3C5731",
"[.	c #457619",
"}.	c #37650C",
"|.	c #294F0C",
"1.	c #416F17",
"2.	c #274D0B",
"3.	c #3C6913",
"4.	c #386511",
"5.	c #274E09",
"6.	c #214903",
"7.	c #214706",
"8.	c #2C530D",
"9.	c #636D60",
"0.	c #495746",
"a.	c #609031",
"b.	c #3E661C",
"c.	c #375F18",
"d.	c #47771C",
"e.	c #254C09",
"f.	c #528225",
"g.	c #1C4402",
"h.	c #2D540D",
"i.	c #417114",
"j.	c #274C0D",
"k.	c #2C491E",
"l.	c #2A4D14",
"m.	c #1F4701",
"n.	c #608E33",
"o.	c #234A06",
"p.	c #2D5310",
"q.	c #4E7E21",
"r.	c #1C4502",
"s.	c #5F8D32",
"t.	c #4F8023",
"u.	c #1B4300",
"v.	c #6DA03A",
"w.	c #2E5C07",
"x.	c #466D2D",
"y.	c #768A69",
"z.	c #5C8B2E",
"A.	c #396119",
"B.	c #4A791F",
"C.	c #37650D",
"D.	c #3A690E",
"E.	c #194101",
"F.	c #234C05",
"G.	c #4D7827",
"H.	c #37650E",
"I.	c #5C645C",
"J.	c #6C746C",
"K.	c #1B4303",
"L.	c #325814",
"M.	c #507F23",
"N.	c #649535",
"O.	c #315713",
"P.	c #679738",
"Q.	c #295304",
"R.	c #659537",
"S.	c #2A5504",
"T.	c #305512",
"U.	c #5D8D2E",
"V.	c #36660A",
"W.	c #A0A3A0",
"X.	c #F2F2F2",
"Y.	c #1C4C00",
"Z.	c #508123",
"`.	c #1F4703",
" +	c #285206",
".+	c #173F00",
"++	c #275006",
"@+	c #4F7A28",
"#+	c #103A00",
"$+	c #3E651C",
"%+	c #325F0B",
"&+	c #0A3700",
"*+	c #375F0B",
"=+	c #CFD0CF",
"-+	c #2D4724",
";+	c #3C6C0D",
">+	c #5D8C2E",
",+	c #4F7E24",
"'+	c #3E661E",
")+	c #315E09",
"!+	c #2A540A",
"~+	c #365C18",
"{+	c #104700",
"]+	c #FEFEFE",
"^+	c #B7BAB6",
"/+	c #003500",
"(+	c #527B2D",
"_+	c #677762",
":+	c #001300",
"<+	c #3A6A10",
"[+	c #929990",
"}+	c #9AA098",
"|+	c #001B00",
"1+	c #D7D7D7",
"    .   + @ # $ % & * = - ; > , ",
"' ) ! ~ { ] ^ / ( _ : < [ } | 1 ",
"2 3 4 5 6 7 6 8 9 0 a b c d e f ",
"g h i j k l m n o p q r s t u v ",
"w x y z A B C D E F 6 G H I J K ",
"L M N B O P Q D R S T U V D W X ",
"Y 7 Z `  ... .+.@.#.$.E %.&.*.=.",
"-.;.>.W ,.'.).!.~.{.].^./.(._.:.",
"<.[.].}.|.x 1.2.3.4.5.6.7.8.( 9.",
"0.a.b.c.d.e.l f.g.x h.E i.C j.k.",
"l.m.n.o.p.q.r.s.t.u.v.w.D ` (.x.",
"y.z.A.B.C.D g.D.E.W 6 F.>.G.H.I.",
"J.K.I L.M.N.O.P.Q.R.S.T.U.E V.W.",
"X.Y.Z.`.D 6  +.+++@+#+m $+%+&+*+",
"    =+-+;+r.>+,+C '+)+!+~+{+]+  ",
"      ^+k /+(+_+:+<+[+}+|+1+    "};
