/* XPM */
static char * local_icone_xpm[] = {
"16 16 239 2",
"  	c #2F5A85",
". 	c #305C88",
"+ 	c #437195",
"@ 	c #558EAA",
"# 	c #649FB5",
"$ 	c #689AB3",
"% 	c #407A9B",
"& 	c #357191",
"* 	c #346F91",
"= 	c #31618E",
"- 	c #305E8C",
"; 	c #2F5986",
"> 	c #2E5785",
", 	c #2E5885",
"' 	c #356C90",
") 	c #4F84A2",
"! 	c #4F82A1",
"~ 	c #33638F",
"{ 	c #31608E",
"] 	c #315D8C",
"^ 	c #32638E",
"/ 	c #32678F",
"( 	c #356F92",
"_ 	c #5787A3",
": 	c #6E92AB",
"< 	c #6896AF",
"[ 	c #588EA8",
"} 	c #3D7898",
"| 	c #366E92",
"1 	c #49819F",
"2 	c #315D89",
"3 	c #325F8D",
"4 	c #34628F",
"5 	c #406F97",
"6 	c #5384A4",
"7 	c #487C9D",
"8 	c #346D92",
"9 	c #346B90",
"0 	c #34668F",
"a 	c #3E6D94",
"b 	c #3C658F",
"c 	c #487298",
"d 	c #46739A",
"e 	c #6295B1",
"f 	c #7BB0C6",
"g 	c #679DB6",
"h 	c #397296",
"i 	c #5287A6",
"j 	c #528AA7",
"k 	c #5D92AD",
"l 	c #5C92AC",
"m 	c #3C6D93",
"n 	c #2F5983",
"o 	c #76465D",
"p 	c #903748",
"q 	c #4D4567",
"r 	c #32608C",
"s 	c #3A7097",
"t 	c #6197B1",
"u 	c #386A95",
"v 	c #336291",
"w 	c #326290",
"x 	c #528CA7",
"y 	c #4F83A4",
"z 	c #32628F",
"A 	c #35658F",
"B 	c #3B6C8E",
"C 	c #BF8485",
"D 	c #D87977",
"E 	c #B8312A",
"F 	c #D93C34",
"G 	c #906671",
"H 	c #508CA6",
"I 	c #397497",
"J 	c #346592",
"K 	c #346492",
"L 	c #336191",
"M 	c #6FA2BB",
"N 	c #4B82A4",
"O 	c #4580A0",
"P 	c #6099B3",
"Q 	c #548EA8",
"R 	c #7C5E6D",
"S 	c #DD9A98",
"T 	c #D1C1C1",
"U 	c #F4F4F4",
"V 	c #C18382",
"W 	c #C9342F",
"X 	c #2D5881",
"Y 	c #356C95",
"Z 	c #558CA9",
"` 	c #4F86A6",
" .	c #6398B3",
"..	c #346392",
"+.	c #356493",
"@.	c #3F799A",
"#.	c #3C7A97",
"$.	c #944C54",
"%.	c #B52F29",
"&.	c #FEFEFE",
"*.	c #FDFEFE",
"=.	c #CACACA",
"-.	c #D93B33",
";.	c #274C73",
">.	c #336392",
",.	c #376994",
"'.	c #4680A0",
").	c #356994",
"!.	c #356794",
"~.	c #356C94",
"{.	c #376F96",
"].	c #725469",
"^.	c #D23731",
"/.	c #CDAFAF",
"(.	c #E1DDDD",
"_.	c #C47B79",
":.	c #C4342D",
"<.	c #306382",
"[.	c #377092",
"}.	c #3A7495",
"|.	c #3C7598",
"1.	c #4A84A2",
"2.	c #578FA9",
"3.	c #649DB5",
"4.	c #5F99B1",
"5.	c #4C89A4",
"6.	c #5C8EA3",
"7.	c #C7352D",
"8.	c #D43931",
"9.	c #C9352E",
"0.	c #D93A33",
"a.	c #983E47",
"b.	c #397893",
"c.	c #387891",
"d.	c #3C7B94",
"e.	c #4D8AA1",
"f.	c #3D7D9A",
"g.	c #397896",
"h.	c #387794",
"i.	c #44809B",
"j.	c #5189A3",
"k.	c #4884A0",
"l.	c #407D99",
"m.	c #854E5A",
"n.	c #D83A32",
"o.	c #E28E8B",
"p.	c #D83A33",
"q.	c #456282",
"r.	c #3E7E9B",
"s.	c #5D96AC",
"t.	c #438099",
"u.	c #397794",
"v.	c #45809C",
"w.	c #5794AC",
"x.	c #4E8EA7",
"y.	c #3D7A97",
"z.	c #397595",
"A.	c #346C85",
"B.	c #CC5D5A",
"C.	c #E6A7A6",
"D.	c #983E46",
"E.	c #386C97",
"F.	c #397399",
"G.	c #377097",
"H.	c #387195",
"I.	c #3D7E99",
"J.	c #46839D",
"K.	c #73ACC1",
"L.	c #5795AD",
"M.	c #3F799C",
"N.	c #558FAB",
"O.	c #397797",
"P.	c #3D7C9A",
"Q.	c #58889A",
"R.	c #938589",
"S.	c #B83835",
"T.	c #8DA3B0",
"U.	c #4B84A3",
"V.	c #376C97",
"W.	c #376C96",
"X.	c #397299",
"Y.	c #528AA8",
"Z.	c #3C7B97",
"`.	c #377394",
" +	c #3A7895",
".+	c #4A84A1",
"++	c #7FA6BB",
"@+	c #7395A6",
"#+	c #9AB1BD",
"$+	c #6186A0",
"%+	c #595975",
"&+	c #7B96AF",
"*+	c #84A4B9",
"=+	c #629DB5",
"-+	c #669FB5",
";+	c #4B86A1",
">+	c #3B789A",
",+	c #356993",
"'+	c #417F98",
")+	c #5690AA",
"!+	c #457B9F",
"~+	c #366C95",
"{+	c #5880A1",
"]+	c #A4B9C9",
"^+	c #B2C5D3",
"/+	c #94ABBF",
"(+	c #40739B",
"_+	c #3B6B98",
":+	c #3D6E99",
"<+	c #588AAA",
"[+	c #387498",
"}+	c #3A7798",
"|+	c #34648F",
"1+	c #356591",
"2+	c #356492",
"3+	c #376A95",
"4+	c #487DA0",
"5+	c #346A95",
"6+	c #346795",
"7+	c #356393",
"8+	c #346292",
"9+	c #346393",
"0+	c #346293",
"a+	c #356494",
"b+	c #356694",
"c+	c #3A7999",
"d+	c #366A95",
"e+	c #4C81A2",
"f+	c #356D96",
"g+	c #366F97",
"h+	c #6299B3",
"i+	c #69A0B8",
"j+	c #679BB5",
"k+	c #669AB5",
"l+	c #5189A8",
"m+	c #6297B2",
"n+	c #6798B4",
"o+	c #4E84A5",
"p+	c #367196",
"  . + @ # $ % & * = - ; > > , , ",
"' ) ! ~ { ] ^ / ( _ : < [ } | 1 ",
"2 3 4 5 6 7 8 9 0 a b c d e f g ",
"h i j k l m n o p q r s t u v w ",
"x y w z A B C D E F G H I J K L ",
"M N O P Q R S T U V W X Y Z `  .",
"....+.@.#.$.%.&.*.=.-.;.v v >.,.",
"'.).!.~.{.].^./.(._.:.<.[.}.|.Y ",
"1.2.3.4.5.6.7.8.9.0.a.b.c.d.e.f.",
"g.h.i.j.k.l.m.n.o.p.q.r.s.t.b.u.",
"h.v.w.x.y.z.A.B.C.D.E.F.G.H.I.J.",
"K.L.M.N.O.P.Q.R.S.T.U.V.W.V.X.Y.",
"Z.`. +.+++@+#+$+%+&+*+=+-+;+O.>+",
",+'+)+!++.~+{+]+^+/+(+_+:+<+[+}+",
"|+1+2+K 3+4+5+6+7+8+9+0+a+7+b+c+",
"d+e+f+g+Y.h+i+j+k+l+m+n+o+p+~.)."};
