/* XPM */
static char * sea_xpm[] = {
"16 16 238 2",
"  	c #305C89",
". 	c #315F8B",
"+ 	c #5286A5",
"@ 	c #437E9E",
"# 	c #5E96AE",
"$ 	c #42799B",
"% 	c #377295",
"& 	c #346A91",
"* 	c #326190",
"= 	c #32608F",
"- 	c #315D8D",
"; 	c #305C8C",
"> 	c #31608D",
", 	c #5785A4",
"' 	c #608DAA",
") 	c #2F5888",
"! 	c #346B91",
"~ 	c #588CAA",
"{ 	c #4980A1",
"] 	c #4A81A3",
"^ 	c #3B6A95",
"/ 	c #3F7499",
"( 	c #356F94",
"_ 	c #357196",
": 	c #40749A",
"< 	c #5C84A3",
"[ 	c #45769A",
"} 	c #3C6F95",
"| 	c #32668F",
"1 	c #356A91",
"2 	c #305A89",
"3 	c #325C8A",
"4 	c #326391",
"5 	c #336292",
"6 	c #4B7EA1",
"7 	c #376E94",
"8 	c #356D94",
"9 	c #366E94",
"0 	c #5B86A3",
"a 	c #52779B",
"b 	c #6090AD",
"c 	c #4D82A2",
"d 	c #72A9BE",
"e 	c #659FB7",
"f 	c #3C7599",
"g 	c #5789A8",
"h 	c #366F97",
"i 	c #5A8FAE",
"j 	c #5A8DAC",
"k 	c #6799B5",
"l 	c #4D83A4",
"m 	c #326392",
"n 	c #326191",
"o 	c #336090",
"p 	c #346090",
"q 	c #356593",
"r 	c #477FA2",
"s 	c #497DA2",
"t 	c #336394",
"u 	c #336293",
"v 	c #346694",
"w 	c #356C97",
"x 	c #518DA9",
"y 	c #467BA1",
"z 	c #336596",
"A 	c #346795",
"B 	c #44789F",
"C 	c #377197",
"D 	c #377198",
"E 	c #558AA8",
"F 	c #477FA1",
"G 	c #5791AD",
"H 	c #4D8AA6",
"I 	c #356A97",
"J 	c #356896",
"K 	c #346495",
"L 	c #346696",
"M 	c #6495B3",
"N 	c #3E769F",
"O 	c #4B89A9",
"P 	c #639DB6",
"Q 	c #4A82A2",
"R 	c #356A96",
"S 	c #356897",
"T 	c #346A97",
"U 	c #356796",
"V 	c #356695",
"W 	c #366B97",
"X 	c #407A9E",
"Y 	c #4C85A5",
"Z 	c #5C91AE",
"` 	c #6BA4BA",
" .	c #67A2B9",
"..	c #356797",
"+.	c #346596",
"@.	c #366A97",
"#.	c #39799A",
"$.	c #629AB1",
"%.	c #528CA5",
"&.	c #397995",
"*.	c #397A95",
"=.	c #366E96",
"-.	c #346595",
";.	c #356595",
">.	c #4B83A3",
",.	c #5690AD",
"'.	c #5385A8",
").	c #3D749B",
"!.	c #367098",
"~.	c #427C9F",
"{.	c #508AA9",
"].	c #4C8AA5",
"^.	c #407F9B",
"/.	c #3A7A95",
"(.	c #397695",
"_.	c #3A7996",
":.	c #43819E",
"<.	c #3E789C",
"[.	c #36739A",
"}.	c #3B799D",
"|.	c #4E87A5",
"1.	c #558EA8",
"2.	c #6AA3B9",
"3.	c #629DB5",
"4.	c #5492AC",
"5.	c #4F8BA7",
"6.	c #386F99",
"7.	c #437F9F",
"8.	c #3E809C",
"9.	c #3D809A",
"0.	c #3D7D98",
"a.	c #44849D",
"b.	c #41809A",
"c.	c #42809C",
"d.	c #3C7E9A",
"e.	c #4588A2",
"f.	c #387997",
"g.	c #3B7C9A",
"h.	c #3C7C9B",
"i.	c #397998",
"j.	c #397898",
"k.	c #3B7B97",
"l.	c #376E99",
"m.	c #376C99",
"n.	c #376B99",
"o.	c #3A749B",
"p.	c #4480A1",
"q.	c #49849F",
"r.	c #3A7A97",
"s.	c #3A7999",
"t.	c #3B7A9A",
"u.	c #5D99B2",
"v.	c #4D8CA8",
"w.	c #5B96B2",
"x.	c #4C8DA9",
"y.	c #3B7C9B",
"z.	c #3C7D97",
"A.	c #3C7B97",
"B.	c #3E7F9E",
"C.	c #3D7D9D",
"D.	c #4277A0",
"E.	c #376D9A",
"F.	c #376D99",
"G.	c #39759B",
"H.	c #5A94AF",
"I.	c #659EB6",
"J.	c #5791AB",
"K.	c #538EA8",
"L.	c #3C799B",
"M.	c #397798",
"N.	c #5E90AA",
"O.	c #6F9AB1",
"P.	c #608DA2",
"Q.	c #3B7997",
"R.	c #3A7699",
"S.	c #3A7599",
"T.	c #4D85A6",
"U.	c #5E96B2",
"V.	c #3B789B",
"W.	c #39759A",
"X.	c #3B7B9C",
"Y.	c #397599",
"Z.	c #366D96",
"`.	c #45829C",
" +	c #568EA9",
".+	c #507FA4",
"++	c #41739B",
"@+	c #3F799C",
"#+	c #73A7BF",
"$+	c #669CB7",
"%+	c #5C91AF",
"&+	c #457AA0",
"*+	c #46789F",
"=+	c #6B99B6",
"-+	c #3C7A9C",
";+	c #3B789A",
">+	c #3D7D9C",
",+	c #4885A1",
"'+	c #346A95",
")+	c #376C96",
"!+	c #386A98",
"~+	c #366798",
"{+	c #3D739C",
"]+	c #3B709C",
"^+	c #336C97",
"/+	c #366597",
"(+	c #356496",
"_+	c #356596",
":+	c #3A779A",
"<+	c #4B89A4",
"[+	c #558DA9",
"}+	c #376D98",
"|+	c #467DA2",
"1+	c #36719A",
"2+	c #4279A0",
"3+	c #5E98B2",
"4+	c #679EB6",
"5+	c #669AB6",
"6+	c #6397B2",
"7+	c #508BAA",
"8+	c #6899B5",
"9+	c #6194B0",
"0+	c #38759B",
"a+	c #366F98",
"b+	c #356497",
"c+	c #598FAC",
"d+	c #39799D",
"e+	c #4786A5",
"f+	c #417BA0",
"g+	c #356697",
"h+	c #366697",
"i+	c #396B99",
"j+	c #3A6C99",
"k+	c #376697",
"l+	c #40729C",
"m+	c #366797",
"n+	c #356396",
"o+	c #3C6A99",
"  . + @ # $ % & * = - ; > , ' ) ",
"! ~ { ] ^ / ( _ : < [ } | 1 2 3 ",
"4 5 5 5 6 7 8 9 0 a b c d e f g ",
"h i j k l m n o p q r s t u v w ",
"x y z A B C D E F G H I J K L L ",
"M N O P Q R S T U V W X Y Z `  .",
"..+.@.#.$.%.&.*.=.-.;.;.-.V ;.>.",
",.'.).!.~.{.].^.&./.(._.:.<.[.}.",
"|.1.2.3.4.5.6.7.8.9.0.a.b.c.d.e.",
"f.g.h.i.j.k.l.m.n.o.p.q.r.i.s.t.",
"u.v.w.x.y.z.A.B.C.D.E.F.G.H.I.J.",
"K.L.M.N.O.P.Q.R.S.T.U.V.W.X.V.Y.",
"Z.`. +.+++@+#+$+%+&+*+=+-+;+>+,+",
"'+)+!+~+{+]+^+/+/+(+(+_+S :+<+[+",
"}+|+1+2+3+4+5+6+7+8+9+0+a+W F.b+",
"c+d+e+f+g+h+i+j+k+l+m+n+g+n+n+o+"};
