/* XPM */
static char *result[] = {
/* columns rows colors chars-per-pixel */
"64 64 256 2 ",
"   c black",
".  c #010101",
"X  c #020202",
"o  c gray1",
"O  c #040404",
"+  c gray2",
"@  c #060606",
"#  c #070707",
"$  c gray3",
"%  c #090909",
"&  c gray4",
"*  c #0B0B0B",
"=  c #0C0C0C",
"-  c gray5",
";  c #0E0E0E",
":  c gray6",
">  c #101010",
",  c #111111",
"<  c gray7",
"1  c #131313",
"2  c gray8",
"3  c #151515",
"4  c #161616",
"5  c gray9",
"6  c #181818",
"7  c #191919",
"8  c gray10",
"9  c #1B1B1B",
"0  c gray11",
"q  c #1D1D1D",
"w  c #1E1E1E",
"e  c gray12",
"r  c #202020",
"t  c gray13",
"y  c #222222",
"u  c #232323",
"i  c gray14",
"p  c #252525",
"a  c gray15",
"s  c #272727",
"d  c #282828",
"f  c gray16",
"g  c #2A2A2A",
"h  c gray17",
"j  c #2C2C2C",
"k  c #2D2D2D",
"l  c gray18",
"z  c #2F2F2F",
"x  c gray19",
"c  c #313131",
"v  c #323232",
"b  c gray20",
"n  c #343434",
"m  c #353535",
"M  c gray21",
"N  c #373737",
"B  c gray22",
"V  c #393939",
"C  c #3A3A3A",
"Z  c gray23",
"A  c #3C3C3C",
"S  c gray24",
"D  c #3E3E3E",
"F  c #3F3F3F",
"G  c gray25",
"H  c #414141",
"J  c gray26",
"K  c #434343",
"L  c #444444",
"P  c gray27",
"I  c #464646",
"U  c gray28",
"Y  c #484848",
"T  c #494949",
"R  c gray29",
"E  c #4B4B4B",
"W  c #4C4C4C",
"Q  c gray30",
"!  c #4E4E4E",
"~  c gray31",
"^  c #505050",
"/  c #515151",
"(  c gray32",
")  c #535353",
"_  c gray33",
"`  c #555555",
"'  c #565656",
"]  c gray34",
"[  c #585858",
"{  c gray35",
"}  c #5A5A5A",
"|  c #5B5B5B",
" . c gray36",
".. c #5D5D5D",
"X. c gray37",
"o. c #5F5F5F",
"O. c #606060",
"+. c gray38",
"@. c #626262",
"#. c gray39",
"$. c #646464",
"%. c #656565",
"&. c gray40",
"*. c #676767",
"=. c #686868",
"-. c DimGray",
";. c #6A6A6A",
":. c gray42",
">. c #6C6C6C",
",. c #6D6D6D",
"<. c gray43",
"1. c #6F6F6F",
"2. c gray44",
"3. c #717171",
"4. c #727272",
"5. c gray45",
"6. c #747474",
"7. c gray46",
"8. c #767676",
"9. c #777777",
"0. c gray47",
"q. c #797979",
"w. c gray48",
"e. c #7B7B7B",
"r. c #7C7C7C",
"t. c gray49",
"y. c #7E7E7E",
"u. c gray50",
"i. c #808080",
"p. c #818181",
"a. c gray51",
"s. c #838383",
"d. c #848484",
"f. c gray52",
"g. c #868686",
"h. c gray53",
"j. c #888888",
"k. c #898989",
"l. c gray54",
"z. c #8B8B8B",
"x. c gray55",
"c. c #8D8D8D",
"v. c #8E8E8E",
"b. c gray56",
"n. c #909090",
"m. c gray57",
"M. c #929292",
"N. c #939393",
"B. c gray58",
"V. c #959595",
"C. c gray59",
"Z. c #979797",
"A. c #989898",
"S. c gray60",
"D. c #9A9A9A",
"F. c #9B9B9B",
"G. c gray61",
"H. c #9D9D9D",
"J. c gray62",
"K. c #9F9F9F",
"L. c #A0A0A0",
"P. c gray63",
"I. c #A2A2A2",
"U. c gray64",
"Y. c #A4A4A4",
"T. c #A5A5A5",
"R. c gray65",
"E. c #A7A7A7",
"W. c gray66",
"Q. c #A9A9A9",
"!. c #AAAAAA",
"~. c gray67",
"^. c #ACACAC",
"/. c gray68",
"(. c #AEAEAE",
"). c #AFAFAF",
"_. c gray69",
"`. c #B1B1B1",
"'. c #B2B2B2",
"]. c gray70",
"[. c #B4B4B4",
"{. c gray71",
"}. c #B6B6B6",
"|. c #B7B7B7",
" X c gray72",
".X c #B9B9B9",
"XX c gray73",
"oX c #BBBBBB",
"OX c #BCBCBC",
"+X c gray74",
"@X c gray",
"#X c gray75",
"$X c #C0C0C0",
"%X c #C1C1C1",
"&X c gray76",
"*X c #C3C3C3",
"=X c gray77",
"-X c #C5C5C5",
";X c #C6C6C6",
":X c gray78",
">X c #C8C8C8",
",X c gray79",
"<X c #CACACA",
"1X c #CBCBCB",
"2X c gray80",
"3X c #CDCDCD",
"4X c #CECECE",
"5X c gray81",
"6X c #D0D0D0",
"7X c gray82",
"8X c #D2D2D2",
"9X c LightGray",
"0X c gray83",
"qX c #D5D5D5",
"wX c gray84",
"eX c #D7D7D7",
"rX c #D8D8D8",
"tX c gray85",
"yX c #DADADA",
"uX c gray86",
"iX c gainsboro",
"pX c #DDDDDD",
"aX c gray87",
"sX c #DFDFDF",
"dX c gray88",
"fX c #E1E1E1",
"gX c #E2E2E2",
"hX c gray89",
"jX c #E4E4E4",
"kX c gray90",
"lX c #E6E6E6",
"zX c #E7E7E7",
"xX c gray91",
"cX c #E9E9E9",
"vX c #EAEAEA",
"bX c gray92",
"nX c #ECECEC",
"mX c gray93",
"MX c #EEEEEE",
"NX c #EFEFEF",
"BX c gray94",
"VX c #F1F1F1",
"CX c gray95",
"ZX c #F3F3F3",
"AX c #F4F4F4",
"SX c gray96",
"DX c #F6F6F6",
"FX c gray97",
"GX c #F8F8F8",
"HX c #F9F9F9",
"JX c gray98",
"KX c #FBFBFB",
"LX c gray99",
"PX c #FDFDFD",
"IX c #FEFEFE",
"UX c white",
/* pixels */
"3.P.^.W.I.N.g.u.p.v.D.F.H.T.T.Y.).{.].}.[._.[.}.[.}.{. XXXoXXXn.l.).(.).).~.(.~.(.XXoX[.^.[.].XX{.[._.#X%X X}.[.].).{.{.{.@X.Xt.",
"~.PXUXUXDXzX2X,X3XzXSXAXSXPXIXPXLXIXPXPXPXPXPXIXPXIXSXCXBXBXAX^.Y.aXdXiXxXFXAXNXMXLXUXAXvXfXrXpXiXyXjXSXHXlXgXzXjXaXiXfXxXJXHX/.",
"'.UXUXLXvXcX5X<X8XnXPXUXUXUXUXUXUXUXUXUXUXUXUXUXUXSXlXlXzXcXNX(.I.8XqX3XeXGXFXZXBXHXKXBXBXpXtX%X$XOX4XzXHXzXdXhXjXdXsXpXsXGXGX!.",
"`.UXUXDXxXcXdX2X3XcXPXUXUXUXLXPXUXUXLXUXIXUXUXUXAXjXzXcXbXmXNX).I.0X9X8X9XvXDXBXNXZXMXxXpXeX<X{.@XoXOXpXBXZXzXuXiXaXiXkXbXnXjXJ.",
"/.UXIXMXuXwXNXsX1XxXPXUXIXAXjXBXUXLXzXFXPXIXUXZXjXkXkXxXbXBXVXR.Z.7XqXwX7XfXDXCXSXbXdXpXeX2X+X%XoXP.).6XdXAXCXaXaXyXaXHXDXiXqXJ.",
"I.HXZXkX6X5XtXeX,XxXPXPXmXzXjXjXMXSXCXLXUXUXAXdXaXxXlXvXVXvXVXF.x.qXqXqX9XiXkXzXjXyXtXeX8X}.~.U.L.N.T.#XpXhXlXsXdXaXjXKXHXfXiXL.",
"L.VXbXyX$X+X4X3X,XzXHXnXiXsXkXgXaXCXUXUXUXLXlXfX5XjXvXFXUXAXmXF.c.0X7X6X7XrX9XyXtXyXaXuXqX].C.b.V.A.A.[.:XuXsXhXgXuXaXBXFXiXeXC.",
"L.VXzX2X).^.oX<X5XxXvXgX>XrXlXzXCXLXUXUXUXPXNXjXhXkXMXIXUXBXbXD.v.eX8X8XrX0X-X*X,X:X<X9X*XW.v.b.m.C.n.G. X@X<X2XrXhXpXkXfX8X6XB.",
"U.mX8X=XQ.R./.+X3XyXbXlX2XtXxXVXUXUXUXUXUXUXIXvXgXnXPXUXUXVXbXS.l.0XwXeXqX%X_.`.`.'.'.oX|.L.b.N.V.C.V.b.U..XOX{.OXaXdXiXiX4X%XP.",
"U.nX6X$XA.b.Q.(.&X7XcXvXkXvXmXLXUXUXUXUXUXUXDXbXzXCXUXUXUXVXnXA.z.0X7X0XeX-X}.|..X_.P.P.R.^.I.V.V.Z.M.v.S.[.|.|.+XyXpXyXaXdXpXU.",
"P.vX3X$XK.D.(.).`.4XzXnXcXvXLXUXUXUXUXIXPXDXhXjXzXVXUXUXUXZXNXH.l.8X6X8X8X=X).{.XXT.c.x.S.[.#X).C.C.N.N.W. X[.OXXXiXdXfXyX0XsXI.",
"L.VXzX2X).^.|.).Q.0XxXbXzXlXBXVXNXMXZXPXUXMXdXlXkXBXUXUXUXCXnXD.n.aXpXeXqX9X-X X.X{.R.R.OXoX>X:X`.L.M.H.oXoX%X X XtXpXtXyXuXpXK.",
"I.SXNXyX#X[.7X-X}.eXFXJXxXgXzXcXxXkXdXBXUXMXhXxXcXVXUXUXUXMXmXD.P.VXCXpX5X9XqX%X'..X+X.X.X1XpXiX<X{.Z.Q.XX7XtX}..XyXuXpXuXaXaXU.",
"R.DXSXgX=X@X4X4X5XhXPXKXZXxXbXzXcXcXjXkXmXkXcXlXfXNXUXUXSXlXmXH.G.VXMXuX4X4XqX-X{.).L.K._.OX>X3X$X~.C.`.OXyXeX{. XrXiXyXqX0X>Xm.",
"T.JXDXhX*X,X0X4X0XCXUXUXUXGXbXbXbXnXlXvXvXcXmXxXnXJXUXHXxXvXmXS.S.SXCXgX6X6XqX=X{.T.x.M.C.`.XXoXOXR.Z.].@XrXfX:XoXyXtXuX6X@X[.s.",
"&.B.M.g.u.i.s.a.a.M.S.S.S.P.F.H.W.W.Q.!.^.).E.A.H.I.I.D.V.A.V.%.%.D.H.n.k.z.b.M.B.x.u.p.p.B.M.Z.H.A.B.A.G.R.Q.J.b.b.x.b.f.e.t.o.",
"Z.l.g.N.N.N.m.C.F.D.V.l.y.b.A.-.y.Q.H.D.S.F.n.f.v.H.P.P.I.U.I.K.H.M.z.F.F.L.H./..X X X`.T.`.[.l.k.).W.!.W.Y.U.J.S.L.T.U.Y.Y.T.K.",
"MXjXzXCXAXZXGXIXGXAXBXhX3XpXCXG.!.NXqX5XyXiXuXuXjXFXUXUXUXUXUXZXcXsXjXCXZXKXKXPXDXGXSXnXeXkXSX/.].DXiXwXkXlXgXgXxXHXUXUXUXUXUXZX",
"hXkXBXmXNXSXPXBXcXkXbXuX2XdXCXL._.MXrX3XcXmXxXmXmXAXUXUXUXUXPXvXpXsXSXNXMXDXPXCXkXmXAXsX0XfXZX_.}.DXdX7XVXNXnXMXMXDXUXUXUXUXPXmX",
"nXdXpXvXNXNXZXhXrXqXiX9X3XaXSXK.^.mX0XiXbXbXnXbXlXBXUXUXSXBXMXxXxXpXjXMXMXmXBXvXrXtXjX0X6XgXSX].}.SXrXdXZXNXnXmXNXAXUXUXGXSXVXzX",
"NXsX1XgXNXBXmXeX=X:X0X5X2XpXNXG.!.dX:XuXnXkXkXhXlXCXUXLXzXzXjXmXNXsX6XhXVXmXzXiX=X;XyXrXrXxXDX`.[.MX6XdXNXmXcXMXnXSXUXPXcXcXxXhX",
"kXlXhXxXdXyX9X5X:X+X#X4X6X5X0Xb.L.6X>XyXnXlXVXNXDXIXUXLXzXvXmXBXhXkXzXcXsXuX6X5X1X#X=XqXuXyXtXL.W.rX7XgXMXmXZXFXHXIXUXLXjXxXnXcX",
"8XfXAXdX7X>X+X6X0X7X.X3X4X1X3XM.F.2X;XrXvXVXIXUXUXUXUXPXxXcXMXbX6XaXCXfX5X-XoX4XwXwX.X9XtX0XqXY.T.wX4XuXMXZXIXIXIXUXUXPXlXcXMXbX",
"ZXMXdX0X9X+X).4XpXwX7XqX8X9XfXV.F.5X<X9XcXFXUXPXIXUXLXGXGXnXnXMXzXcXsX7X7X@X_.8XdXyX7X9XiXeXzXW.I.eX8XyXvXZXUXLXKXLXLXHXGXMXnXNX",
"DXfX0X8XrX%X].7XpXqX7X7X5XsXJXH.S.7X;XrXxXAXUXUXIXPXNXcXIXCXmXNXNXpX3XwXrX-X[.7XgXiXyXeXeXhXSX].P.rX8XiXMXAXUXUXLXJXNXbXLXCXbXbX",
"pX0X<X&X=X{._.OX3X3X$X2X3XdXFXG.N.rX3XaXMXPXUXUXUXLXcXjXMXMXNXNXsX4X=X#X#X'.`.=X0X4X<XqXwXdXFX}.Q.uX6XhXCXIXUXIXLXJXbXlXmXbXmXnX",
"9X3X[.'.'.].|._.}.'._.<X7XtXvXC.D.nX6XhXCXUXUXUXUXLXzXlXcXvXVXmX6X$X'.`.).)./._. X{.}.9XtXuXBXQ.'.mXwXcXAXUXUXUXUXKXbXMXNXMXbXnX",
"tX;X`.).K.(.[.}./.^.>X7X9X3X1Xj.K.NX8XwXnXPXUXUXUXJXzXlXiXzXMXcXqX=X_.(.T._.].].`. X3XtXfXuXyXI.{.MXeXaXZXPXUXUXUXJXzXvXdXbXnXNX",
"qX5X|.(.A.W.^.).(.}.6X4X3X@X/.9.Y.SXaXdXzXMXPXUXUXBXcXkX6XiXmXaX9X4X{./.S.`.[.'._.+XwXwXwX-X}.N.XXGXhXkXmXVXPXUXUXZXvXzX8XgXNXsX",
"yXrX2X}._._.`.[.{.[.).}..X!.Z.&.U.UXDXmXbXnXBXSXZXnXhXkXbXcXfXwX8XeX1X}./.).`.'.'.}.'. XoX].L.a.XXUXHXNXNXMXSXDXJXVXfXzXZXmXfX0X",
"0.8.8.:.$.&.<.8.0.4.$.,.q.0.&._ 2.U.Y.F.Z.D.C.b.c.n.f.m.F.B.b.v.v.n.M.A.n.m.N.V.A.S.k.m.C.S.a.0.N..X X`._._.`.).).K.b.S.U.A.n.b.",
"w j z x z g C Y T Y Q Q ! |  . .| [ { [ { | ) R R E ~ } | | | ) _ | %.y.i.p.s.y.i.f.s.a.d.f.s.s.i.i.y.u.y.i.i.u.q. .[ [ [ o..._ ",
"4.8XtXtXeX<X+X'.{.3XpXuXyXdXjXfXfXdXhXfXgXgXuXwXtXrXyXdXdXaXiXj.j.7X0X9XqXrXuXuXpXnXbXgXpX6X1X6X4X5XwXdXsX0X4X2X<XOX X|.=XaXyXN.",
"D.UXIXPXBXnXeX7XeXNXPXIXIXUXUXUXUXUXUXUXUXUXUXPXIXKXmXnXcXnXNXG.c.qXrX9XuXNXSXDXZXIXUXDXSXgX0X1X*X,XqXmXDXdX9X0XuXqXrX0XpXZXGXQ.",
"F.UXUXDXvXnXeX5X6XcXPXUXUXUXUXUXUXUXUXUXUXUXUXUXPXvXjXxXxXxXNXJ.c.6X8X9X7XxXCXVXZXZXZXBXvXqX6X].^.).+XsXAXjX9XiXyXqXqXeXfXSXZXL.",
"F.UXUXVXfXfXcXrX3XxXPXUXUXLXNXGXUXPXCXLXUXUXUXLXbXjXzXxXvXxXMXG.z.qX0XeXqXjXNXAXAXNXkXfXrX7X+X.X[.R._.3XhXAXnXuXiXeXeXvXAXlXtXK.",
"A.UXJXbX9X1XaXrX3XvXPXUXSXzXgXnXKXJXzXFXUXUXLXcXjXzXbXvXbXnXNXJ.l.wX5XrXrXjXNXmXMXuX0X6X6X*X)..X(.m.L.oXyXbXBXtXrXeXpXCXCXwXwXA.",
"g.NXbXhX<X<X5X<X4XbXIXFXhXhXkXlXlXBXPXLXIXPXzXsXuXzXzXMXKXmXmXG.k.0X4X0X8X9XtXiX0XeXqX8X6X|.H.A.B.v.N.[.,XyXrX9X9XuXyXAXZXrXtXA.",
"g.MXvXwX.X/.%X6X7XcXBXlX8XuXxXlXlXDXUXIXUXLXlXhXuXzXvXLXUXCXnXS.k.6X5X8X7X8XqX8X3X8XqXqX-X).M.c.v.n.b.~. X;XeX8XtXyXrXxXvXwXeXB.",
"h.CXtX%X^.~.^.-X6XhXvXjX>XrXxXbXKXUXUXUXUXUXJXcXzXcXGXUXUXBXmXD.c.0X7X6X9X=XXX].].{.XX&XoXU.x.N.M.b.N.Z.Q.{.|.XX1XrXiXtXyX5X-XG.",
"k.BX9XOXH.S.~.}.;X8XcXmXuXdXxXFXUXUXUXUXUXUXPXnXlXVXUXUXUXNXbXG.C.9X0X6X6X#X[.[. X[.`..X.XY.B.B.N.C.B.n.C.[. X'.OXrXuXtXyX0X4XJ.",
"c.CXwXOXD.N.Q.~.|.4XzXmXbXzXDXUXUXUXUXUXUXLXnXzXlXAXUXUXUXNXcXK.G.5X9XwXqX@X[.}.}.^.A.N.B. X_.J.v.N.m.b.B.`.|.[.+XyXfXiXyXpXiXU.",
"z.ZXuX;XE.U.!.^.`.7XbXMXvXcXJXLXLXLXPXUXUXBXfXlXkXZXUXUXUXCXvX~.L.8X9X6X8X2X.X[.'.E.M.V.W.|.XX{.G.m.B.V.^.|.{.[.%XuXdXeXrXuXiXK.",
"h.ZXbXeX X_.*X}.^.rXAXSXmXnXzXlXzXkXzXDXUXMXfXlXlXZXUXUXUXBXzX!./.NXBXyX4XyXeX%X[.}.|..XoX+XwX0X-X/.M.Y.%X=X5X@X.X9XeXrXyXiXuXP.",
"f.VXAXfX*X@X9X2X=XpXPXIXNXlXlXxXhXfXjXMXJXvXkXzXxXVXUXUXLXvXbX/.).CXAXdX7XeXiX-X[..X.X].}.-XiXuX1X{.Z.).#XtXaX X X0X7XqXuX0X7XS.",
"h.DXGXgX+X:XtX6X4XNXUXUXPXmXzXbXxXvXbXnXcXzXvXxXkXSXUXPXvXlXmX~.!.VXZXsX0X9X0X%X`.W.B.A.~. X%X&X[.T.A.{.oXpXaX@X|.wXwXqX0X2XOXh.",
",.eXeX&X(._.@X+X@XiXjXhXhXlXeXeXtXrXeXrXtXtXuXqXrXxXvXsX8XuXaXS.G.dXdX7X<X<X:X].~.K.c.c.v.~.).`./.T.U.(.|.6X5X@X_.&X*X#XoX^.E.8.",
"a b F L P P I U Y Y Y R  .#.@.' +.<.,.;.>.>.:.>.,.3.3.3.3.d.v.f.d.k.k.z.x.m.v.j.z.z.k.h.h.v.b.g.k.v.z.x.b.n.d.2.2.5.4.3.<.,.,.&.",
"tX-X,XwXtXwXwXfXgXgXyX4XoX;XpXp.f.0X#XXX+XOXOX@X,XdXbXvXbXMXNXjXsX8X3XaXgXjXxXmXmXmXcXaX4XiXhXT.R.fX8X4X5X6X2X7X8XzXvXlXvXbXnXdX",
"kXkXAXMXCXFXIXDXcXnXnXfX3XdXSXB.L.NXyX3XjXcXvXcXxXAXUXUXUXUXUXnXdXsXNXFXVXDXUXSXbXNXMXjXqXcXFX_.[.AXlXiXMXxXnXVXMXHXUXUXUXUXUXnX",
"bXkXVXBXNXBXSXlXdXpXlXqX1XpXBXN.K.bXyX9XxXcXVXbXzXDXUXUXPXJXFXxXdXpXnXBXNXZXDXcXhXjXvXpXeXbXJX[.[.AXfXtXBXBXnXnXmXSXUXUXPXKXHXzX",
"DXhX8XzXVXbXmXuX1X1X5X2X4XdXDXC.S.bX3XaXmXnXBXxXlXCXUXPXvXjXlXvXnXuX5XjXCXBXMXpX4X8XeX9X9XbXHX[.`.nX0XfXBXCXmXbXcXAXUXPXbXjXxXlX",
"VXxX8XlXMXjXuX7X=XOX1X7X7XyXvXc.C.wX>XiXnXxXbXxXMXGXUXKXjXlXvXnXnXfXqXvXNXzXsX0X=X+X8XwXqXaXcX^.(.pX9XhXBXmXmXbXMXJXUXKXkXxXxXxX",
"qXkXCXcXqX7X=X7XeX,X.X7X0X6X7Xa.c.6X2XiXbXvXJXLXIXUXUXLXcXcXvXnXeXpXmXvX0X7X,X7X9X:XXX8XqX0XeXT.T.qX5XdXNXBXKXLXPXUXUXLXkXzXxXcX",
"sXNXBXyX8X&X|.6XeXeX;XwX9X7XwXg.l.5X1XuXvXSXUXPXIXUXUXLXVXmXcXxXsXxXnXwX5X*X|.9XeX9X>X0XtXuXtXR.I.0X3XtXbXGXUXUXUXUXUXPXMXcXvXmX",
"CXnXqX7XrX$X|.wXzXdXwX6XqXyXnXb.c.5X4XgXMXAXUXIXUXUXDXCXUXVXvXnXmXgX8X4X8X+X|.wXlXaXtXsXrXdXCX/.P.5X2XfXvXAXUXIXIXLXSXVXUXVXbXMX",
"vXwX5XqX7X+X{.0XyXyX7X6X7XhXJXA.l.8X6XfXbXFXUXKXLXPXzXjXAXmXmXBXxXeX5X5X6X X`.6XiXtXwXrXwXjXGX'.W.9X6XjXMXJXUXJXHXDXxXzXDXnXmXvX",
"iX5XXX X[.'.}.@X:X$X XwXeXjXGXH.F.lX5XkXZXUXUXKXPXHXkXlXkXbXMXmX9X1X X_.|.'._.|.>X-XoXeX0XhXCX`.].cX8XbXSXUXUXIXIXJXgXlXbXzXvXcX",
"aX,X[.'._.[.[.].].].&XtXtXuXhXb.K.BX8XiXZXUXUXUXUXLXxXxXjXmXNXMXqX$X/._.(.`.].[.|.[.%XuXrXeXfXT.].AXqXkXAXUXUXUXUXKXkXjXxXmXbXvX",
"iX6XoX}.G.{.{.].`.@XqXyX0X<X*Xh.Y.SXtXrXMXDXUXUXUXFXvXzX4XgXMXkX9X>X].~.Z.].'.[.{.OXyXpXuX9X=XG.oXDXaXaXnXFXUXUXUXSXgXjX4XdXBXlX",
"tXtX-XOX{.@X.X.X|.oX2X>X:X}._.7.E.PXnXvXVXmXGXPXKXcXhXxXiXlXbXqX4X5XoXQ.Q.[.'.XX X X<X<X,X X].l.@XPXBXNXCXmXFXPXLXnXzXxXpXjXbXrX",
"&X:X;X}.[.XX].).~.Y.J.I.I.J.g.#.m.bXnXfXfXaXrXqX9X9X=X5XaXrX-X#X*X>X;X/.E.(.'.(./.E.P.!.`./.m.t.^.NXmXhXaXuXeXtXtXrX;X1XyX0X-X+X",
"x c x J ` ( ( W x j d h l U ) ` ' ,.i.a.i.r.#...| .. .@.#.O.X.X.o.O.+.+... .O.o...X.O.+.%.6.e.q.t.g.i.p.3.@.O.O.+.o.X...+.o. .o.",
"7 7 6 x U K P H s 8 8 9 p A Q ' _ #.5.8.8.7.X.^ E E E ! / ^ ( ! ~ _ _ } ' ) _ _ ' ` { ` _ +.7.8.0.7.8.q.@.W ~ ( / ! ~ ! ^ ) ! ( "
};
