/* XPM */
static char * triangle_icon3_xpm[] = {
"16 16 207 2",
"  	c #67A3BA",
". 	c #71A5BD",
"+ 	c #5A91AC",
"@ 	c #387099",
"# 	c #346896",
"$ 	c #346897",
"% 	c #346997",
"& 	c #336C97",
"* 	c #336794",
"= 	c #346695",
"- 	c #356D97",
"; 	c #5E94B0",
"> 	c #70A1B9",
", 	c #4884A4",
"' 	c #4484A2",
") 	c #3C7C9B",
"! 	c #377995",
"~ 	c #377A96",
"{ 	c #377397",
"] 	c #377395",
"^ 	c #546D8D",
"/ 	c #C64250",
"( 	c #5B638D",
"_ 	c #346595",
": 	c #346795",
"< 	c #366D97",
"[ 	c #387599",
"} 	c #528AA7",
"| 	c #76ABC1",
"1 	c #6CA0B7",
"2 	c #3B7D98",
"3 	c #387A95",
"4 	c #985C6F",
"5 	c #D53536",
"6 	c #AD5871",
"7 	c #366995",
"8 	c #356895",
"9 	c #356695",
"0 	c #366795",
"a 	c #356B96",
"b 	c #366F99",
"c 	c #5289A9",
"d 	c #6197B4",
"e 	c #508DA9",
"f 	c #4987A0",
"g 	c #B34754",
"h 	c #D63637",
"i 	c #CC4C57",
"j 	c #397A94",
"k 	c #397895",
"l 	c #397596",
"m 	c #3A7996",
"n 	c #3B7997",
"o 	c #3D7999",
"p 	c #4686A2",
"q 	c #4284A0",
"r 	c #41829F",
"s 	c #5D97B1",
"t 	c #538DAA",
"u 	c #3C7D9D",
"v 	c #896E87",
"w 	c #C3343A",
"x 	c #D53537",
"y 	c #DE3F42",
"z 	c #8F6C81",
"A 	c #397A95",
"B 	c #397B96",
"C 	c #3A7C96",
"D 	c #3B7D97",
"E 	c #42829C",
"F 	c #72A8BD",
"G 	c #68A1B8",
"H 	c #4F8FAA",
"I 	c #609AB1",
"J 	c #558FA9",
"K 	c #55668F",
"L 	c #C23036",
"M 	c #C52F31",
"N 	c #D43637",
"O 	c #E43B3C",
"P 	c #DD3F43",
"Q 	c #497B93",
"R 	c #3A7C97",
"S 	c #4F8CA3",
"T 	c #4C8AA3",
"U 	c #3B7C98",
"V 	c #3A7999",
"W 	c #3C7A9A",
"X 	c #3E7D9C",
"Y 	c #3B799A",
"Z 	c #3C7B95",
"` 	c #A75064",
" .	c #C52E32",
"..	c #E33A3D",
"+.	c #E43A3C",
"@.	c #BB596A",
"#.	c #5392A8",
"$.	c #5E95AC",
"%.	c #3F7E9B",
"&.	c #3A7A98",
"*.	c #4787A5",
"=.	c #4585A2",
"-.	c #3D7C97",
";.	c #B54551",
">.	c #C42E31",
",.	c #C52E31",
"'.	c #E33B3C",
").	c #CE4958",
"!.	c #39729B",
"~.	c #39739A",
"{.	c #397599",
"].	c #3B7D9B",
"^.	c #73ADC4",
"/.	c #4788A5",
"(.	c #3D7E9D",
"_.	c #3E7F9D",
":.	c #8E6176",
"<.	c #C42E32",
"[.	c #C52D31",
"}.	c #E33B3E",
"|.	c #9B5B7B",
"1.	c #376D99",
"2.	c #376E99",
"3.	c #377099",
"4.	c #3A789A",
"5.	c #3F7A9B",
"6.	c #627A96",
"7.	c #B24B57",
"8.	c #C42D31",
"9.	c #C52D30",
"0.	c #D43536",
"a.	c #E23B3C",
"b.	c #E33B3D",
"c.	c #E33A3C",
"d.	c #CA4959",
"e.	c #616D92",
"f.	c #37709A",
"g.	c #407E9A",
"h.	c #82AFC2",
"i.	c #88B1C1",
"j.	c #B4535C",
"k.	c #C52E30",
"l.	c #B95E6D",
"m.	c #4D86A3",
"n.	c #3A799B",
"o.	c #568DAA",
"p.	c #4F7EA4",
"q.	c #797092",
"r.	c #C42F35",
"s.	c #C52C31",
"t.	c #D43436",
"u.	c #DF484B",
"v.	c #9D9BAC",
"w.	c #3E7D9E",
"x.	c #43719D",
"y.	c #366697",
"z.	c #A14864",
"A.	c #C42D30",
"B.	c #C32E30",
"C.	c #C62E30",
"D.	c #D33536",
"E.	c #E23C3D",
"F.	c #B8506B",
"G.	c #376C98",
"H.	c #356796",
"I.	c #58618F",
"J.	c #AC4158",
"K.	c #C32D30",
"L.	c #C23032",
"M.	c #A94359",
"N.	c #755980",
"O.	c #695F8A",
"P.	c #885C82",
"Q.	c #C5495B",
"R.	c #E33C3C",
"S.	c #C54A5E",
"T.	c #63638E",
"U.	c #366F98",
"V.	c #92788F",
"W.	c #BD3840",
"X.	c #AB5A68",
"Y.	c #746C89",
"Z.	c #37749A",
"`.	c #357097",
" +	c #4F8CA8",
".+	c #5491AD",
"++	c #3E759C",
"@+	c #806F8E",
"#+	c #D04F5A",
"$+	c #E03B3E",
"%+	c #9B6480",
"&+	c #3A799C",
"*+	c #856381",
"=+	c #9A4B68",
"-+	c #3A7099",
";+	c #6E98B5",
">+	c #6D98B4",
",+	c #6FA6BB",
"'+	c #75A9BE",
")+	c #4979A2",
"!+	c #487EA3",
"~+	c #75ABBF",
"{+	c #75A8BC",
"]+	c #699DB4",
"^+	c #905D82",
"/+	c #E33C3F",
"(+	c #97557B",
"  . + @ # $ % & * = = = = - ; > ",
", ' ) ! ~ { ] ^ / ( _ _ = _ _ : ",
"< [ } | 1 2 3 4 5 6 7 8 9 0 9 _ ",
"a < b c d e f g h i j k l m n o ",
"p q r s t u v w x y z A B C D E ",
"F G H I J K L M N O P Q R S T U ",
"V W X Y Z `  .M x ..+.@.#.$.%.&.",
"*.=.V Y -.;.>.,.x ..'.).!.~.{.].",
"^./.(._.:.<.>.[.x '.'.}.|.1.2.3.",
"V 4.5.6.7.>.8.9.0.a.b.c.d.e.3.f.",
"g.h.i.j.[.8.8.k.0...b.'.'.l.m.n.",
"o.p.q.r.s.[.8.k.t.c...'.c.u.v.w.",
"x.y.z.8.A.A.B.C.D.a.E.b.b.O F.G.",
"H.I.J.K.B.L.M.N.O.P.Q.E.'.R.S.T.",
"U.V.k.W.X.Y.Z.`. +.+++@+#+$+b.%+",
"&+*+=+-+;+>+,+'+)+!+~+{+]+^+/+(+"};
