/* XPM */
static char *result[] = {
/* columns rows colors chars-per-pixel */
"64 64 248 2 ",
"   c #070707",
".  c #0B0B0A",
"X  c #0A0807",
"o  c #150D07",
"O  c #120C09",
"+  c #1A0907",
"@  c #14110D",
"#  c #1D160B",
"$  c #1E190E",
"%  c #141413",
"&  c #191613",
"*  c #1D1914",
"=  c #1C1C1B",
"-  c #171818",
";  c #260E08",
":  c #3C0D0B",
">  c #350B08",
",  c #25150B",
"<  c #29170C",
"1  c #231A0D",
"2  c #2B1D0D",
"3  c #34160D",
"4  c #231C13",
"5  c #2A1F12",
"6  c #211F1B",
"7  c #301F10",
"8  c #1D221B",
"9  c #2A220F",
"0  c #2D2213",
"q  c #24221B",
"w  c #2C251B",
"e  c #2A2C1D",
"r  c #262B13",
"t  c #332514",
"y  c #342919",
"u  c #3C2C1A",
"i  c #362817",
"p  c #2D341C",
"a  c #31341D",
"s  c #232323",
"d  c #2B2B25",
"f  c #2C2B2B",
"g  c #282824",
"h  c #342C23",
"j  c #392E24",
"k  c #312F2D",
"l  c #2E3127",
"z  c #333A24",
"x  c #32322C",
"c  c #3A3628",
"v  c #343434",
"b  c #3B3B34",
"n  c #3B3B3B",
"m  c #383736",
"M  c #2F3030",
"N  c #440101",
"B  c #4B0303",
"V  c #440E0D",
"C  c #480804",
"Z  c #540505",
"A  c #5D0B0A",
"S  c #550907",
"D  c #44130E",
"F  c #4B130E",
"G  c #4C1511",
"H  c #4C1A13",
"J  c #501712",
"K  c #531B15",
"L  c #53110E",
"P  c #640C0C",
"I  c #6A0C0D",
"U  c #6A120E",
"Y  c #65120D",
"T  c #6E0F10",
"R  c #651211",
"E  c #6D1414",
"W  c #6F1815",
"Q  c #6F1E1B",
"!  c #761617",
"~  c #781717",
"^  c #731A16",
"/  c #791C16",
"(  c #751C19",
")  c #7B1A1A",
"_  c #791718",
"`  c #452E1A",
"'  c #44321C",
"]  c #4B341C",
"[  c #4E3519",
"{  c #53341B",
"}  c #55391C",
"|  c #5B3A1D",
" . c #593616",
".. c #5B2F1C",
"X. c #6C2915",
"o. c #652818",
"O. c #7C211E",
"+. c #742E1A",
"@. c #742915",
"#. c #6C3E15",
"$. c #633C1C",
"%. c #6A3E1C",
"&. c #633B17",
"*. c #753D14",
"=. c #7A311C",
"-. c #763817",
";. c #6E260C",
":. c #433322",
">. c #4A3623",
",. c #4C3926",
"<. c #4C3B2A",
"1. c #44382A",
"2. c #533C24",
"3. c #5B3D21",
"4. c #513E2B",
"5. c #573826",
"6. c #453C35",
"7. c #643F22",
"8. c #6B3E23",
"9. c #6D3221",
"0. c #753222",
"q. c #7E2320",
"w. c #3C422B",
"e. c #3E4531",
"r. c #7D420D",
"t. c #6D4116",
"y. c #65411B",
"u. c #6C431B",
"i. c #634017",
"p. c #744316",
"a. c #7C4414",
"s. c #73451B",
"d. c #794618",
"f. c #7E4918",
"g. c #7A491B",
"h. c #46462C",
"j. c #574020",
"k. c #5C4122",
"l. c #54422E",
"z. c #5B442C",
"x. c #42423C",
"c. c #494937",
"v. c #554332",
"b. c #5A4633",
"n. c #5D4935",
"m. c #5C4A3A",
"M. c #524B36",
"N. c #55573C",
"B. c #4E5338",
"V. c #644424",
"C. c #6B4523",
"Z. c #65492C",
"A. c #714422",
"S. c #724A24",
"D. c #7B542C",
"F. c #634C35",
"G. c #634C37",
"H. c #64523D",
"J. c #6A543C",
"K. c #675438",
"L. c #72593C",
"P. c #75583A",
"I. c #434343",
"U. c #4B4B4A",
"Y. c #4B4844",
"T. c #4F5049",
"R. c #5B5D43",
"E. c #56554C",
"W. c #555554",
"Q. c #5D5D57",
"!. c #574D42",
"~. c #6E5843",
"^. c #655744",
"/. c #735C44",
"(. c #745E4A",
"). c #795943",
"_. c #665E57",
"`. c #5C604D",
"'. c #666649",
"]. c #7C644A",
"[. c #786349",
"{. c #6B6757",
"}. c #7B6954",
"|. c #787153",
" X c #6E7055",
".X c #6C6D69",
"XX c #757470",
"oX c #831F1F",
"OX c #813F0E",
"+X c #83241E",
"@X c #833719",
"#X c #851F20",
"$X c #832220",
"%X c #8B2626",
"&X c #8F3B34",
"*X c #84450C",
"=X c #8D480D",
"-X c #864913",
";X c #955513",
":X c #934F0B",
">X c #82582D",
",X c #83563A",
"<X c #8E623C",
"1X c #995648",
"2X c #89594F",
"3X c #A7594E",
"4X c #826649",
"5X c #836A4C",
"6X c #876746",
"7X c #836B54",
"8X c #856F59",
"9X c #896E54",
"0X c #8B7354",
"qX c #8B735B",
"wX c #857457",
"eX c #947B5C",
"rX c #9A7C5C",
"tX c #937758",
"yX c #976850",
"uX c #A37651",
"iX c #897966",
"pX c #957D63",
"aX c #987C65",
"sX c #A67065",
"dX c #9C8264",
"fX c #9C836A",
"gX c #95806C",
"hX c #968C7E",
"jX c #88867A",
"kX c #A1876C",
"lX c #A3896E",
"zX c #A18365",
"xX c #A58C73",
"cX c #A98F76",
"vX c #A38978",
"bX c #AC947C",
"nX c #A89076",
"mX c #B0987F",
"MX c #888888",
"NX c #9A938D",
"BX c #B39B83",
"VX c #B99E88",
"CX c #A79A8B",
"ZX c #BBA38B",
"AX c #ADA093",
"SX c #AEAAA5",
"DX c #C4A590",
"FX c #C2A18D",
/* pixels */
"3 J J J J G F V V F L G G L J J A R P A R P P P R P P P P P R B B P A P P A R A P A R P A P A P A P P A P A A A P P A P P P A 3 ",
"K oXoXoX) _ ~ ! ~ ~ ) ) oXoXoXoXoXoXoXoXoXq.oXoXq.oXO.) ) _ ) A L ) ~ ~ ( _ ( _ ) oXoX) _ _ _ ! ~ ~ ^ ) ~ ! ) ~ _ _ ~ ~ ( ~ _ G ",
"K oXoXoX_ ~ ! ! ~ ~ oXoX+XoXoXoXoX#X#X#XoXoXoXoX#X) ~ ~ ! ~ ~ A A _ ~ ~ _ ! ! ! ~ ) oX) ^ _ ^ T I I E ~ ~ / ! ! ^ ~ _ ~ ~ _ _ J ",
"K oXoXoX~ ! ~ ~ ~ ~ oXoX#XoXoXoXoXoXoX$XoXoXoXoXq._ ~ ! ~ ~ ~ A A _ ~ ~ _ ! ! ! ! ~ ~ ~ _ _ E I I P P ~ ! ! ! ! ~ ~ ^ ~ _ _ _ G ",
"K oXoX) ~ ! ! ! ~ ~ oX#XoXoX~ ) oXoX) ) oXoX+XO.~ ~ ~ ~ ~ ~ ~ J L ~ ! ~ _ ! _ ! ! ! ! ! ! ! I I P Z A T ~ ~ ! ! ! ! ! ! _ ^ ~ G ",
"L oX) ~ ! ~ ~ ! ~ ~ oX$X) ! ! _ ) oX) oXoX#X) _ ! ~ ~ _ ) ~ ^ G D ~ ~ ~ _ ! ( ! / ~ ! ! ! I S Z Z N B P ! ~ ! ! ~ ~ ! ~ _ _ _ J ",
"J ~ ~ ~ ! I ~ ~ ~ _ ) ) ~ ~ ~ ~ ! ) oX$X#XoX_ _ ~ ! ~ O.q.) _ G H ~ ~ ~ ! ~ ! ! ~ ! ! ! ! P N N N N N A I ! ! ! ! ~ ! ! ! ! _ G ",
"J ~ ~ ! P I I ~ ^ Q ^ ^ ( ( ( ( O.O.$Xq.+X$X) _ ^ ( ( q.$X) ( H H ^ W Q ( ( ! E E E ^ ^ U P C C N C C S Y E E ! ! ~ ~ ! ! ! ! F ",
"F ~ ~ ! A A P E { { } 7.7.V.7.8.A.A.C.C.A.C.V.V.7.3.%.8.A.7.3.] ' { { 3.$.V.8.V.7.8.C.8.7.C.%.7.3.3.| $.7.C.V.o.I ! ! ~ ! T I J ",
"L ~ ~ T Z B P U 8.C.C.S.C.S.Z.C.C.d.s.C.A.A.d.u.C.s.s.C.Z.C.C.C.C.C.V.C.S.C.C.C.C.S.d.d.S.C.s.d.A.C.s.s.C.V.V.X.I ^ ! ~ ! ! ~ J ",
"F ~ ~ T Z Z P I %.C.A.d.d.p.C.C.C.g.-Xd.-X-Xa.d.s.u.V.C.C.C.d.d.d.C.C.A.a.d.p.8.C.C.s.f.g.f.-X*Xd.s.t.V.C.C.u.;.I ! ! ! ~ ! ~ J ",
"F ~ ~ T I P I U *.d.f.s.F.Z.V.z.k.| $.%.%.|  .| ,.] 5.Z.Z.C.C.b.m.b.z.V.| |  .{ ] [ $.y.y.y.y.| 3.2.2.} #.*X*X@.P ! ! ! ~ ~ ~ J ",
"F ~ ~ ! T I ! ^ OX-Xd.V.U.U.Y.I.v s = 6 - % - s d k U.Q.U.M M v m n n v g g f s - & = = 6 = = d x k v f t.:X-X=.P ^ ! / ~ ! ~ G ",
"J ~ ! ~ T T ! / *.s.p.Z.W.U.Y.I.n M s M s % s s f I.U.v s s M n m n n v f s s f s - - = = - = g l x n m C.;X;X-.I ! ! ! ~ ! ! F ",
"L ) ~ _ ! T ~ ) C.C.Z.5.U.U.I.n n s s n k s f f v f % - s I.I.v M v n 6.m 6.M g f f = = = % = s f x c.x.k.-Xd.@.I ~ / ! ~ U P V ",
"; D D D D D D G C.C.C.4.I.W.I.I.v f f v M g g M s . - = s 6.W.v = s .XNXNXhX_.f s v f s q % - s g d <.6.%.*XC.o.F F G F F V V ; ",
"F D D D D D D H C.Z.C.,.c.`.W.U.n v I.n f f v n - - - & 6 I._.m = f iXfXbXhXXXU.I.M f s s - - = s k b x 2.s.S...G H K K K K K H ",
"_ _ ~ ~ ~ ) ) $X*.s.s.[ p T..X.XI.n I.v v n n s g 6.= = f W.U.s % f }.8X8XjXAXNXjXn f f s - - q g v x c | p.p.+._ ) #X$X$X$XoXoX",
"~ ~ ~ ~ / ) oX) %.p.*.[ - v .X.XY.I.n n n U.f = Y.W.s = v _.I.= % % j (.}.aXAXAXMXiX!.f s = q s f v c x ,.t.p.+.~ ) #XoXoX#XoX_ ",
"! ~ ~ ~ ! _ ) ( *.s.u.[ @ m XXXX{.I.m M I.U.n f W.W.= = M E.Y.v = . O 4 6.dXZXSXVXCX^.h f s d d f k n b C.:Xp.X.~ ) #XoXoX) ) ~ ",
"! ! ! ~ ! ~ ~ ^ %.p.s.[ % I.XXMXMXU.v M I.U.I.f _.W.= = f v n v - % .   & 1.{.hXiXW.q w j k g f f f m v &.*Xu.X.) ) oXoX_ ! ~ ! ",
"~ _ ! ! ~ ~ ^ _ *.%.y.' 8 R.MXSXMXn g M n U.I.c (..XU.k f m n n s - % % . % s k s - & y g j g f f f v f <.C.s.=.) oXoXoX_ ! _ ! ",
"~ ~ ~ ! ! ! T ^ &.#.t.` e R.iXSXXXv = f m I.6.m.(.7XiX(.!.6.c.!.v = = - 4 h g = % . @ 4 6 :.1.M f f M s :.V.C.0.#XoXoXoX~ ~ ! / ",
"~ ~ ! ! ! E P ^ 3.j.y.` 6 ^.iXCXQ.s % s m 6.m.~.(.7XqXfXfX8X(.^.m.4.m.6.m.G.:.h s q * & , 6 1.1.f f f s ] C.V.9.%X$XoXoX) _ ~ ~ ",
"~ ! ! ~ ~ I I / 7.V.V.' 8 v.eXpXI.- % s f <.~.~.].qXfXBXBXBXbXfXpXaXaXaXaX8XH.j 6 h 4.x t w 6 5 s s f = } u.2.9.%X#X) ) q.) _ ~ ",
"! ~ E E I I I E | j.j.' * c }.R.s O - f m m.v.n.L.qXnXVXZXZXZXZXBXBXbXxXfXqX^.,.6 h m.<.:.>.g - = s s s >.V.j.9.#XoX~ ~ _ _ ~ ~ ",
"! ! I P I I P P } j.j.' % w.R.h $ % s v !.y u 5.,XrXBXVXZXZXZXZXBXnXbXxXeX4XJ.b.j g <.u t j h 6 = 6 s s ,.V.y.=.#XoX~ ~ ! ~ ~ ~ ",
"! T I P S P I U *.p.p.` % c B.q * s f b :.9 ] D.<XuXnXBXBXBXZXZXCXxXcXkXtX].G.b.h w ,.q - & 6 - 6 6 d f <.u.S.=.#XoX~ ~ ! ! ! ~ ",
"! ! I I Z P P I %.V.C.] * h.w.s = s v 1.0 4 V.<XuXzXbXmXmXVXVXVXbXxXlXzXeX5XJ.b.u 4 :.w % @ % = - - d k <.u.u.=.#X) ~ ~ ~ ~ ! ! ",
"~ ~ T I P I I P 8.8.V.' s e.d * 6 f f w 7 t ,XrXzXxXbXmXmXBXBXBXbXxXfXdXeX0X).4.y * i 0 % . % = - % 4 c } s.p.=.) _ _ _ ~ ~ ~ ~ ",
": V : : > > : V { 3.k.[ M f & = s f f 4 < 2.0XdXzXcXmXbXmXbXnXnXxXdXdXdXdXtX<Xl.i , 5 u 4 O . - - % % j 5.p.t.o.A G H G G H H G ",
"X X O O + X + ; { | &.[ z q @ = v k w 4 7 F.rXzXcXbXbXbXbXcXxXlXdXdXdXeX9X5X).l.i # 5 >.6 %   @ O . % 5 } t.d.;.N < , , , , , # ",
"> W W E E E R R  .i.i.} h 4 @ g n j t 2 7 F.0XwXqXqX9XqXrXdXzXpX0X].~.H.~.J.m.>.t o 1 u q .   . . @ @ * ] S.A.O.E E R E E E E D ",
"G oXoX$X( _ _ ( } } j.,.d # 6 m 6.>.u 5 u K.5X7X8X[.~.L.P.0XdXeX[.z.<.l.v.<.l.>.t # * 0 & . . . . . # # ' S.Z.o.! ! ~ ~ ! ! ) J ",
"G #XoX) _ _ / _ C.V.S.<.e 4 g v :.<.` t ] P.eX].v.j 0 4.J.9XxXdXP.z.M.j q w ' z.' , # # . . . @ O . # # ' C.Z.+.! ~ ! ! ! ! ~ J ",
"J #Xq.) _ _ ! ( %.S.A.j.y 1 w c <.<.2.t ' 6XcXzX8X}.~.qXtXdXnXkXP.5XdX}.K.J.P.5Xl., # .         . O o % ' S.C.+.! ! / ! ) ! ~ J ",
"G #X#X_ ~ ! ~ / *.d.-XZ.<.t y :.4.<.4.7 u 6XbXBXBXfXfXnXbXlXbXlX6XaXlXaXqXqX0X9Xz.2 o X         X . . -  .*X*X=.~ ~ ~ ! ! ! ~ J ",
"V ) _ _ ! ! ! ~ *Xa.d.4X~.l.:.y ,.:.<.< u 4XbXZXVXBXBXZXBXcXBXcX6XeXnXcXlXlXzXyXZ.0 o O     .     X . - &.:X-X@X! ~ / ! ! ! ~ G ",
"V _ _ ! I I ! / *.s.d.].[.K.l.u i ` :., u ].BXZXDXDXZXZXnXxXVXBX0X0XcXBXVXbXzXyXZ.5 # @ . .   . . . . - &.;X;XOX! ~ ! ~ ! ~ ~ F ",
"V ! ! E P P P ! A.V.C.~.c.J.G.l.5 t :.4 u [.cXZXDXDXZXBXcXcXFXVXpX5XdXcXbXcXzX0Xl.1 1 = @ . . .     . - | -X-X+.T ! ! ~ ! ! T F ",
"V _ ! T Z Z P T A.C.C.^.s M.v.l.5 5 :.4 , F.dXbXBXmXlXcXlX9XfXfX/.b.eXeXtXeX0XL.' # & - $ . @ @ X     %  .a.C.X.P ! ! ! _ ! T G ",
"V ! _ E Z Z P R 8.V.Z.^.8 w.7X'.y # t 5 & 2.].eXdX6X0XlXlX/.G.4.i b.0X5XP.P.K.,.0 O O # $ @   . .   X % ,.s.S.X.P ! ! ! ! ! _ J ",
"V _ ! E P A P I *.s.s.J.q z }. XE.6 , t 1 :././.P.P.9XaXxXxXiX^./.9X5XG.4.n.<.' i . & @ $ # . . . . @ &  .d.p.;.I ! ! ! ! ! _ J ",
"V _ _ ! I I T E #.p.u.J.s w.5X X Xh.q 2 2 y L.5X0X0X/.J.[.8XaXdX7Xm.:.:.J.5Xb.4.5 @ * 4 9 9 . . . # @ # >.p.#.o.I ! ! ! _ ~ _ J ",
": _ _ _ I I ~ ~ s.s.u.G.r B.wXR.N.iXN.8 1 t <.].tXrXrX2X/.G.n.j.5.H 5.~.0X).v.u @ $ 0 t t 9 .   . O # - t.;Xt.;.P ! ! / ! ! ! G ",
"V _ _ _ ! I ~ ( $.t.d.J.l h.N.B.R.iXR.w , 1 # <.4XrXrXsX3X3X1X1X&X&X).].5XF.u # @ 9 t t t * @   % & * q &.*Xt.o.I ! ~ ~ ~ ! I V ",
": R W E R R E W p.t.y.H.e.h.N.h.e.N.H.,.4 * . $ 4.9XaXeXsX1X3X1X2XP.(./.F.u 1 o & 1 1 4 9 * # # 0 q q q ] C.s.X.R E E E E A P : ",
"+ + + + ; ; + , | t.u.J.R.N.R.N.h.n.n.u t 2 O * i 4.5XaXpXeXqXtXqX0X).4.i 1 # # # # * 4 1 * r p p p p q ' Z.C.` 3 3 3 7 3 3 3 < ",
"R R E E R W W Q 5.3.k.K. X'.'.B.B.l.' p 9 y * j F.u ' (.fXbXmXmXxX7X4.t # * 1 # 1 1 $ 2 9 p p z r p p d [ S.k.o.Q ^ O.O.( ( O.Q ",
"! _ _ ! ~ ) O.q.7.V.k./.dXwX|.N.B.N.J.l.h.h.z v.tX7X>.i n.7XqX}.J.>.9 $ # # 1 # 1 2 1 9 y p z p r p p p [ u.j.o.) ) $XoX#X#X#XO.",
"! ! ! ! ~ ) ) ^ 3.j.3.[.dX5XdX'.N.H.].K.H.c.n.].fXnXfXn.t i u u t 9 4 & q ' l.,.' i i t a z z p p z z d ,.V.k.o.~ ) oXoX#X#XoX! ",
"_ _ ! ! ~ ~ ) ^ | 2.} L.|.|.wX[.R.R.5X{.T._.xXlXfXnXmXxXJ.t 0 0 9 9 = 4 l.5X5X].J.n.,.u w e d 8 l w.z w.j.V.V.+.~ ) oXoX_ ! _ ! ",
"_ _ ! ! _ _ ! ^ s.s.p.S.D.D.>XD.Z.n.P.[.H.(.9X4X].5X4X4X4X| {  . . . . .D.>X>X>XD.Z.V.} >.>.>.:.1.h.<.l.k.S.s.+._ ) #X#X_ ~ ~ ! ",
"_ _ ! ! ! ! ! ! u.C.y.C.y.t.u.y.t.r.r.f.a.u.C.V.k.u.V.V.u.p.%.V.u.C.u.u.C.C.t.y.#.t.r.*X-Xa.u.C.V.V.u.V.V.u.u.=.#XoX#XO._ ~ ! _ ",
"_ ! ! ! _ E I Q 8.8.C.Z.C.r.d.u.7.| } } #.*X*Xd.d.a.a.p.u.p.-.8.V.8.C.V.C.C.a.a.u.3.| } | #.*X*Xd.a.a.a.p.u.p.=.#X#XoX#X) _ ! _ ",
"( ! ! ! _ T I ! ..| | V.u.p.s.y.V.8.| | *.=X;X:X*Xa.a.*.a.*.7.7.3.{ | | 7.%.*.*.A.C.V.|  .%.:X;X=X*.*.*Xa.a.p.0.%XoXq.) #X) ! ! ",
"~ ~ ~ T ! I I T ! Q ^ _ ( / / H H ( ) ( / +X+X+X%Xq.( ( ) ( ^ ^ ^ W ^ ^ ^ I U ~ / / / _ ( / ) Y Y ( ( ( ( O.q.$X%XoX_ _ ) ) ~ ~ ",
"~ ~ T I I I I I T I I ! ! ~ ) D G ~ / ~ ) +XoXoX$XoX) ~ _ / _ ! ~ ~ I I I P I I T I I ! ! / _ A A ~ ~ ~ ) oXoX$XoXoX~ ~ _ _ ~ ~ ",
"~ T P P P P I P P I I ! ! ! ! H G _ _ ! ) oXoXoXoX) _ ^ _ ^ ! ! ~ T P I P P P I I P U ~ ! ! ~ A A _ ~ ~ ) #XoXoXoX#X_ ! ~ ! ~ ~ ",
"~ T I P Z P P P I I ~ ~ ! ! ! D H ) ! ! _ oXoXoX#Xq.~ ~ ~ ~ ! ! ~ E I P Z P I P I I ~ / ~ ^ T S A ) ~ ~ _ oXoXoXoXO._ ! ! ! ~ ! ",
"~ ! U I A P I P I I T T I I P > H oX~ ! _ _ ) oXoX) ~ ~ ~ ~ ~ / ~ ~ U P A P P P I I U T T I P Z R q.) ~ / ! ) #XoX) ! ) ~ ! ! ~ ",
"T ! U P A A A P A A S S A A B ; H ) ) ^ ! ^ E ^ E W W W W W W W E ^ U Y P A P P A A S A P A B > A ) ) ! W W ^ E W W E E W W W W ",
"O o o + , ; + ; o X X o O ; ; 1 # 3 B B N N < < < < , < < < < < < < 2 , , , ; ; , , , , , > N N B B C B > < < < , 2 < < < < , , ",
"      . o o o o X       X o o # # > N N N N > # $ # # # # # # # 1 # # # , # , # , # # # , ; N N N N > N > # # # # # # 1 # # # * "
};
