/* XPM */
static char * doord_xpm[] = {
"64 64 108 2",
"  	c #DBDBDB",
". 	c #CBCBCB",
"+ 	c #D3D3D3",
"@ 	c #DFDFDF",
"# 	c #BFBFBF",
"$ 	c #ABABAB",
"% 	c #B3B3B3",
"& 	c #A7A7A7",
"* 	c #8B8B8B",
"= 	c #777777",
"- 	c #6F6F6F",
"; 	c #838383",
"> 	c #6B6B6B",
", 	c #5B5B5B",
"' 	c #434343",
") 	c #3B3B3B",
"! 	c #373737",
"~ 	c #575757",
"{ 	c #7F7F7F",
"] 	c #4B4B4B",
"^ 	c #272727",
"/ 	c #1B1B1B",
"( 	c #979797",
"_ 	c #474747",
": 	c #2F2F2F",
"< 	c #9F9F9F",
"[ 	c #4F4F4F",
"} 	c #B7B7B7",
"| 	c #939393",
"1 	c #525252",
"2 	c #5D5D5D",
"3 	c #606060",
"4 	c #5F5F5F",
"5 	c #5E5E5E",
"6 	c #595959",
"7 	c #4C4C4C",
"8 	c #CCCCCC",
"9 	c #D5D5D5",
"0 	c #E9E9E9",
"a 	c #C2C2C2",
"b 	c #B8B8B8",
"c 	c #9D9D9D",
"d 	c #909090",
"e 	c #B6B6B6",
"f 	c #D6D6D6",
"g 	c #CECECE",
"h 	c #A3A3A3",
"i 	c #999999",
"j 	c #989898",
"k 	c #A1A1A1",
"l 	c #B4B4B4",
"m 	c #969696",
"n 	c #5A5A5A",
"o 	c #7B7B7B",
"p 	c #AEAEAE",
"q 	c #949494",
"r 	c #363636",
"s 	c #1D1D1D",
"t 	c #191919",
"u 	c #1A1A1A",
"v 	c #3A3A3A",
"w 	c #767676",
"x 	c #565656",
"y 	c #A4A4A4",
"z 	c #4A4A4A",
"A 	c #171717",
"B 	c #1E1E1E",
"C 	c #737373",
"D 	c #464646",
"E 	c #C0C0C0",
"F 	c #383838",
"G 	c #686868",
"H 	c #959595",
"I 	c #A6A6A6",
"J 	c #333333",
"K 	c #656565",
"L 	c #A9A9A9",
"M 	c #323232",
"N 	c #6A6A6A",
"O 	c #8C8C8C",
"P 	c #AFAFAF",
"Q 	c #A0A0A0",
"R 	c #9C9C9C",
"S 	c #585858",
"T 	c #8D8D8D",
"U 	c #B9B9B9",
"V 	c #BABABA",
"W 	c #C7C7C7",
"X 	c #A2A2A2",
"Y 	c #727272",
"Z 	c #C5C5C5",
"` 	c #D4D4D4",
" .	c #ECECEC",
"..	c #303030",
"+.	c #B2B2B2",
"@.	c #828282",
"#.	c #9B9B9B",
"$.	c #848484",
"%.	c #929292",
"&.	c #404040",
"*.	c #1F1F1F",
"=.	c #1C1C1C",
"-.	c #616161",
";.	c #505050",
">.	c #4D4D4D",
",.	c #555555",
"'.	c #646464",
").	c #636363",
"    . . . . . . . . . . . . . . . . . . . . . . . . . . . . . . . . . . . . . . . . . . . . . . . . . . . . . . . . . . . . . . ",
"+ @ + # # # # # # # # # # # # # # # # # # # # # # # # # # # # # # # # # # # # # # # # # # # # # # # # # # # # # # # # # # # # # ",
"$ $ # % % % % % % % % % % % % % % % % % % % % % % % % % % % % % % % % % % % % % % % % % % % % % % % % % % % % % % % % % % % & * ",
"$ & & * = - - - - - - - - - - - - - - - - - - - - - - - - - - - - - - - - - - - - - - - - - - - - - - - - - - - - - - - - ; * > ",
"$ & $ = , ' ) ) ! ) ) ! ) ) ! ) ) ! ) ) ! ) ) ! ) ) ! ) ) ! ) ) ! ) ) ! ) ) ! ) ) ! ) ) ! ) ) ! ) ) ! ) ) ! ) ) ! ) ) ) ~ = * > ",
"$ & $ { ] ^ / / / / / / / / / / / / / / / / / / / / / / / / / / / / / / / / / / / / / / / / / / / / / / / / / / / / / ) > ( ( > ",
"$ & & { _ : ) ] ] ] ] ] ] ] ] ] ] ] ] ] ] ] ] ] ] ] ] ] ] ] ] ] ] ] ] ] ] ] ] ] ] ] ] ] ] ] ] ] ] ] ] ] ] ] ] ] ] ] ] = * < ( > ",
"$ & & = ^ / : ] ] ] ] ] ] ] ] ] ] ] ] ] ] ] ] ] ] ] ] ] ] ] ] ] ] ] ] ] ] ] ] ] ] ] ] ] ] ] ] ] ] ] ] ] ] ] ] ] ] ] ] ~ < < ( > ",
"$ & $ { [ : > & ( & & ( & & ( & & ( & & ( & & ( & & ( & & ( & & ( & & ( & & ( & & ( & & ( & & ( & & ( & & ( & & ( & & $ < < ( > ",
"$ & $ { ] ! , ( < ( ( < ( ( < ( ( < ( ( < ( ( < ( ( < ( ( < ( ( < ( ( < ( ( < ( ( < ( ( < ( ( < ( ( < ( ( < ( ( < ( ( } & $ ( > ",
"$ & & { _ : , | | ( | | ( | | ( | | ( | | ( | | ( | | ( | | ( | | ( | | ( | | ( | | ( | | ( | | ( | | ( | | ( | | ( | $ < < ( > ",
"$ & & = ^ / : ] ] ] ] ] ] ] ] ] ] ] ] ] ] ] ] ] ] ] ] ] ] ] ] ] ] ] ] ] ] ] ] ] ] ] ] ] ] ] ] ] ] ] ] ] ] ] ] ] ] ] ] ~ < < ( > ",
"$ & $ { [ : > & ( & & ( & & ( & & ( & & ( & & ( & & ( & & ( & & ( & & ( & & ( & & ( & & ( & & ( & & ( & & ( & & ( & & $ < < ( > ",
"$ & $ { ] ! , ( < ( ( < ( ( < ( ( < ( ( < ( ( < ( ( < ( ( < ( ( < ( ( < ( ( < ( ( < ( ( < ( ( < ( ( < ( ( < ( ( < ( ( } & $ ( > ",
"$ & & { _ : , | | ( | | ( | | ( | | ( | | ( | | ( | | ( | | ( | | ( | | ( | | ( | | ( | | ( | | ( | | ( | | ( | | ( | $ < < ( > ",
"$ & & = ^ / : ] ] ] ] ] ] ] ] 1 2 3 4 4 4 4 4 4 4 4 4 4 4 4 4 4 4 4 4 4 4 4 4 4 4 4 4 4 4 4 4 5 6 [ 7 ] ] ] ] ] ] ] ] ~ < < ( > ",
"$ & $ { [ : > & ( & & ( & & ( 8 9 0 a 8 8 # # # # # 8 # # # 8 # 8 # 8 # 8 # 8 # # 8 # 8 # # 8 b a c d & & ( & & ( & & $ < < ( > ",
"$ & $ { ] ! , ( < ( ( < ( ( < e f g h i < ( ( < ( ( < ( ( < ( ( < ( ( < ( ( < ( ( < ( ( < j k l m n o ( ( < ( ( < ( ( } & $ ( > ",
"$ & & { _ : , | | ( | | ( | | p < q r s t u t t u t t u t t u t t u t t u t t u t t u t t u v _ w ! 5 ( | | ( | | ( | $ < < ( > ",
"$ & & = ^ / : ] ] ] ] ] ] ] ] x y z A B ^ ^ ^ ^ ^ ^ ^ ^ ^ ^ ^ ^ ^ ^ ^ ^ ^ ^ ^ ^ ^ ^ ^ ^ ^ ^ ) C D u : ] ] ] ] ] ] ] ] ~ < < ( > ",
"$ & $ { [ : > & ( & & ( & & ( E i ( F G ( & & ( & & ( & & ( & & ( & & ( & & ( & & ( & & ( & E H I F 3 & & ( & & ( & & $ < < ( > ",
"$ & $ { ] ! , ( < ( ( < ( ( < p h < J 3 < ( ( < ( ( < ( ( < ( ( < ( ( < ( ( < ( ( < ( ( < ( p < ( J K ( ( < ( ( < ( ( } & $ ( > ",
"$ & & { _ : , | | ( | | ( | | p i | J 2 | ( | | ( | | ( | | ( | | ( | | ( | | ( | | ( | | ( L H ( M 2 ( | | ( | | ( | $ < < ( > ",
"$ & & = ^ / : ] ] ] ] ] ] ] ] x h ] t : ] ] ] ] ] ] ] ] ] ] ] ] ] ] ] ] ] ] ] ] ] ] ] ] ] ] x < ] t : ] ] ] ] ] ] ] ] ~ < < ( > ",
"$ & $ { [ : > & ( & & ( & & ( E i ( F N ( & & ( & & ( & & ( & & ( & & ( & & ( & & ( & & ( & E H & F 3 & & ( & & ( & & $ < < ( > ",
"$ & $ { ] ! , ( < ( ( < ( ( < p i < J 3 < ( ( < ( ( < ( ( < ( ( < ( ( < ( ( < ( ( < ( ( < ( p H ( J K ( ( < ( ( < ( ( } & $ ( > ",
"$ & & { _ : , | | ( | | ( | | p i | J 2 | ( | | ( | | ( | | ( | | ( | | ( | | ( | | ( | | ( L H ( M 2 ( | | ( | | ( | $ < < ( > ",
"$ & & = ^ / : ] ] ] ] ] ] ] ] x h ] t : ] ] ] ] ] ] ] ] ] ] ] ] ] ] ] ] ] ] ] ] ] ] ] ] ] ] x < ] t : ] ] ] ] ] ] ] ] ~ < < ( > ",
"$ & $ { [ : > & ( & & ( & & ( E i ( F N ( & & ( & & ( & & ( & & ( & & ( & & ( & & ( & & ( & E H & F 3 & & ( & & ( & & $ < < ( > ",
"$ & $ { ] ! , ( < ( ( < ( ( < p h < J 3 < ( ( < ( ( < ( ( < ( ( < ( ( < ( ( < ( ( < ( ( < ( p H ( J K ( ( < ( ( < ( ( } & $ ( > ",
"$ & & { _ : , | | ( | | ( | | p i | J 2 | ( | | ( | | ( | | ( | | ( | | ( | | ( | | ( | | ( L H ( M 2 ( | | ( | | ( | $ < < ( > ",
"$ & & = ^ / : ] ] ] ] ] ] ] ] x { ] t : ] ] ] ] ] ] ] ] ] ] ] ] ] ] ] ] ] ] ] ] ] ] ] ] ] ] x O ] t : ] ] ] ] ] ] ] ] ~ < < ( > ",
"$ & $ { [ : > & ( & & ( & & ( E a ( F N ( & & ( & & ( & & ( & & ( & & ( & & ( & & ( & & ( & E P & F 3 & & ( & & ( & & $ < < ( > ",
"$ & $ { ] ! , ( < ( ( < ( ( < p i < J 3 < ( ( < ( ( < ( ( < ( ( < ( ( < ( ( < ( ( < ( ( < ( p < ( J K ( ( < ( ( < ( ( } & $ ( > ",
"$ & & { _ : , | | ( | | ( | | p h | J 2 | ( | | ( | | ( | | ( | | ( | | ( | | ( | | ( | | ( L H ( M 2 ( | | ( | | ( | $ < < ( > ",
"$ & & = ^ / : ] ] ] ] ] ] ] ] x i ] t : ] ] ] ] ] ] ] ] ] ] ] ] ] ] ] ] ] ] ] ] ] ] ] ] ] ] x H ] t : ] ] ] ] ] ] ] ] ~ < < ( > ",
"$ & $ { [ : > & ( & & ( & & ( E i ( F N ( & & ( & & ( & & ( & & ( & & ( & & ( & & ( & & ( & E H & F 3 & & ( & & ( & & $ < < ( > ",
"$ & $ { ] ! , ( < ( ( < ( ( < p h < J 3 < ( ( < ( ( < ( ( < ( ( < ( ( < ( ( < ( ( < ( ( < ( p H ( J K ( ( < ( ( < ( ( } & $ ( > ",
"$ & & { _ : , | | ( | | ( | | p i | J 2 | ( | | ( | | ( | | ( | | ( | | ( | | ( | | ( | | ( L < ( M 2 ( | | ( | | ( | $ < < ( > ",
"$ & & = ^ / : ] ] ] ] ] ] ] ] x h ] t : ] ] ] ] ] ] ] ] ] ] ] ] ] ] ] ] ] ] ] ] ] ] ] ] ] ] x H ] t : ] ] ] ] ] ] ] ] ~ < < ( > ",
"$ & $ { [ : > & ( & & ( & & ( E i ( F N ( & & ( & & ( & & ( & & ( & & ( & & ( & & ( & & ( & E < & F 3 & & ( & & ( & & $ < < ( > ",
"$ & $ { ] ! , ( < ( ( < ( ( < p h < J 3 < ( ( < ( ( < ( ( < ( ( < ( ( < ( ( < ( ( < ( ( < ( p H ( J K ( ( < ( ( < ( ( } & $ ( > ",
"$ & & { _ : , | | ( | | ( | | p i | J 2 | ( | | ( | | ( | | ( | | ( | | ( | | ( | | ( | | ( L H ( M 2 ( | | ( | | ( | $ < < ( > ",
"$ & & = ^ / : ] ] ] ] ] ] ] ] x h ] t : ] ] ] ] ] ] ] ] ] ] ] ] ] ] ] ] ] ] ] ] ] ] ] ] ] ] x H ] t : ] ] ] ] ] ] ] ] ~ < < ( > ",
"$ & $ { [ : > & ( & & ( & & ( E i ( F N ( & & ( & & ( & & ( & & ( & & ( & & ( & & ( & & ( & E < & F 3 & & ( & & ( & & $ < < ( > ",
"$ & $ { ] ! , ( < ( ( < ( ( < p h Q J 3 < ( ( < ( ( < ( ( < ( ( < ( ( < ( ( < ( ( < ( ( < ( p ( ( J K ( ( < ( ( < ( ( } & $ ( > ",
"$ & & { _ : , | | ( | | ( | | p j R S T U # V V # V V # V V # V V # V V # V V # V V # V V # W # j M 2 ( | | ( | | ( | $ < < ( > ",
"$ & & = ^ / : ] ] ] ] ] ] ] ] x R X Y y Z ` Z ` Z ` ` Z Z ` Z Z ` Z ` Z Z ` Z Z Z ` Z Z ` W @  ._ t ..] ] ] ] ] ] ] ] ~ < < ( > ",
"$ & $ { [ : > & ( & & ( & & ( +.X @.{ #.m & & ( & & ( & & ( & & ( & & ( & & ( & & ( & & ( & y $.2 ..3 & & ( & & ( & & $ < < ( > ",
"$ & $ { ] ! , ( < ( ( < ( ( < %.Y &.*.u / u u / u u / u u / u u / u u / u u / u u / u u / u u =.s ..- ( ( < ( ( < ( ( } & $ ( > ",
"$ & & { _ : , | | ( | | ( | | | { -.;.>.>.[ >.>.[ >.>.[ >.>.[ >.>.[ >.>.[ >.>.[ >.>.[ >.>.[ >.>.,.'.; ( | | ( | | ( | $ < < ( > ",
"$ & & = ^ / : ] ] ] ] ] ] ] ] ] ] ] ] ] ] ] ] ] ] ] ] ] ] ] ] ] ] ] ] ] ] ] ] ] ] ] ] ] ] ] ] ] ] ] ] ] ] ] ] ] ] ] ] ~ < < ( > ",
"$ & $ { [ : > & ( & & ( & & ( & & ( & & ( & & ( & & ( & & ( & & ( & & ( & & ( & & ( & & ( & & ( & & ( & & ( & & ( & & $ < < ( > ",
"$ & $ { ] ! , ( < ( ( < ( ( < ( ( < ( ( < ( ( < ( ( < ( ( < ( ( < ( ( < ( ( < ( ( < ( ( < ( ( < ( ( < ( ( < ( ( < ( ( } & $ ( > ",
"$ & & { _ : , | | ( | | ( | | ( | | ( | | ( | | ( | | ( | | ( | | ( | | ( | | ( | | ( | | ( | | ( | | ( | | ( | | ( | $ < < ( > ",
"$ & & = ^ / : ] ] ] ] ] ] ] ] ] ] ] ] ] ] ] ] ] ] ] ] ] ] ] ] ] ] ] ] ] ] ] ] ] ] ] ] ] ] ] ] ] ] ] ] ] ] ] ] ] ] ] ] ~ < < ( > ",
"$ & $ { [ : > & ( & & ( & & ( & & ( & & ( & & ( & & ( & & ( & & ( & & ( & & ( & & ( & & ( & & ( & & ( & & ( & & ( & & $ < < ( > ",
"$ & $ { ] ! , ( < ( ( < ( ( < ( ( < ( ( < ( ( < ( ( < ( ( < ( ( < ( ( < ( ( < ( ( < ( ( < ( ( < ( ( < ( ( < ( ( < ( ( } & $ ( > ",
"$ & & { _ : , | | ( | | ( | | ( | | ( | | ( | | ( | | ( | | ( | | ( | | ( | | ( | | ( | | ( | | ( | | ( | | ( | | ( | $ < < ( > ",
"$ & & = ^ ^ _ ).).).).).).).).).).).).).).).).).).).).).).).).).).).).).).).).).).).).).).).).).).).).).).).).).).).).).% & ( > ",
"$ & & ; > { & % % % % % % % % % % % % % % % % % % % % % % % % % % % % % % % % % % % % % % % % % % % % % % % % % % % % # # % < > ",
"$ & & | * < % % % % % % % % % % % % % % % % % % % % % % % % % % % % % % % % % % % % % % % % % % % % % % % % % % % % % } } } < > ",
"& < < * | | ( ( ( ( ( ( ( ( ( ( ( ( ( ( ( ( ( ( ( ( ( ( ( ( ( ( ( ( ( ( ( ( ( ( ( ( ( ( ( ( ( ( ( ( ( ( ( ( ( ( ( ( ( ( ( ( * ).",
"& | = ~ ~ ~ ~ ~ ~ ~ ~ ~ ~ ~ ~ ~ ~ ~ ~ ~ ~ ~ ~ ~ ~ ~ ~ ~ ~ ~ ~ ~ ~ ~ ~ ~ ~ ~ ~ ~ ~ ~ ~ ~ ~ ~ ~ ~ ~ ~ ~ ~ ~ ~ ~ ~ ~ ~ ~ ~ , ~ [ [ "};
