/* XPM */
static char * door2_xpm[] = {
"64 64 178 2",
"  	c #CACACA",
". 	c #C5C5C5",
"+ 	c #C0C0C0",
"@ 	c #B9B9B9",
"# 	c #B5B5B5",
"$ 	c #B3B3B3",
"% 	c #9D9D9D",
"& 	c #8E8E8E",
"* 	c #878787",
"= 	c #858585",
"- 	c #898989",
"; 	c #929292",
"> 	c #8B8B8B",
", 	c #6C6C6C",
"' 	c #5A5A5A",
") 	c #505050",
"! 	c #4F4F4F",
"~ 	c #4E4E4E",
"{ 	c #4D4D4D",
"] 	c #535353",
"^ 	c #666666",
"/ 	c #7D7D7D",
"( 	c #8A8A8A",
"_ 	c #616161",
": 	c #404040",
"< 	c #2C2C2C",
"[ 	c #282828",
"} 	c #272727",
"| 	c #262626",
"1 	c #252525",
"2 	c #2D2D2D",
"3 	c #484848",
"4 	c #6F6F6F",
"5 	c #8C8C8C",
"6 	c #5E5E5E",
"7 	c #373737",
"8 	c #343434",
"9 	c #3A3A3A",
"0 	c #383838",
"a 	c #4C4C4C",
"b 	c #6B6B6B",
"c 	c #868686",
"d 	c #9B9B9B",
"e 	c #555555",
"f 	c #2E2E2E",
"g 	c #3F3F3F",
"h 	c #494949",
"i 	c #474747",
"j 	c #565656",
"k 	c #7A7A7A",
"l 	c #989898",
"m 	c #9E9E9E",
"n 	c #888888",
"o 	c #545454",
"p 	c #2A2A2A",
"q 	c #3C3C3C",
"r 	c #656565",
"s 	c #767676",
"t 	c #737373",
"u 	c #787878",
"v 	c #727272",
"w 	c #797979",
"x 	c #757575",
"y 	c #777777",
"z 	c #747474",
"A 	c #7B7B7B",
"B 	c #9F9F9F",
"C 	c #A0A0A0",
"D 	c #A3A3A3",
"E 	c #A1A1A1",
"F 	c #9C9C9C",
"G 	c #A2A2A2",
"H 	c #A8A8A8",
"I 	c #ABABAB",
"J 	c #5F5F5F",
"K 	c #4A4A4A",
"L 	c #9A9A9A",
"M 	c #979797",
"N 	c #999999",
"O 	c #969696",
"P 	c #A4A4A4",
"Q 	c #B0B0B0",
"R 	c #A6A6A6",
"S 	c #A5A5A5",
"T 	c #333333",
"U 	c #424242",
"V 	c #707070",
"W 	c #232323",
"X 	c #313131",
"Y 	c #525252",
"Z 	c #606060",
"` 	c #636363",
" .	c #626262",
"..	c #808080",
"+.	c #3D3D3D",
"@.	c #4B4B4B",
"#.	c #A7A7A7",
"$.	c #5D5D5D",
"%.	c #939393",
"&.	c #949494",
"*.	c #959595",
"=.	c #242424",
"-.	c #303030",
";.	c #676767",
">.	c #6E6E6E",
",.	c #6D6D6D",
"'.	c #6A6A6A",
").	c #646464",
"!.	c #838383",
"~.	c #5C5C5C",
"{.	c #7C7C7C",
"].	c #909090",
"^.	c #ACACAC",
"/.	c #BBBBBB",
"(.	c #C9C9C9",
"_.	c #BCBCBC",
":.	c #B1B1B1",
"<.	c #B6B6B6",
"[.	c #B2B2B2",
"}.	c #B4B4B4",
"|.	c #ADADAD",
"1.	c #AFAFAF",
"2.	c #AEAEAE",
"3.	c #AAAAAA",
"4.	c #848484",
"5.	c #919191",
"6.	c #8D8D8D",
"7.	c #828282",
"8.	c #D1D1D1",
"9.	c #DADADA",
"0.	c #C3C3C3",
"a.	c #A9A9A9",
"b.	c #B7B7B7",
"c.	c #686868",
"d.	c #696969",
"e.	c #121212",
"f.	c #090909",
"g.	c #060606",
"h.	c #050505",
"i.	c #070707",
"j.	c #040404",
"k.	c #1A1A1A",
"l.	c #323232",
"m.	c #8F8F8F",
"n.	c #3E3E3E",
"o.	c #7E7E7E",
"p.	c #393939",
"q.	c #5B5B5B",
"r.	c #717171",
"s.	c #353535",
"t.	c #7F7F7F",
"u.	c #818181",
"v.	c #464646",
"w.	c #434343",
"x.	c #595959",
"y.	c #414141",
"z.	c #3B3B3B",
"A.	c #515151",
"B.	c #2B2B2B",
"C.	c #454545",
"D.	c #444444",
"E.	c #2F2F2F",
"F.	c #292929",
"G.	c #363636",
"H.	c #575757",
"I.	c #585858",
"J.	c #222222",
"K.	c #C2C2C2",
"L.	c #C4C4C4",
"M.	c #BFBFBF",
"N.	c #C1C1C1",
"O.	c #D2D2D2",
"P.	c #C6C6C6",
"Q.	c #C8C8C8",
"R.	c #BEBEBE",
"S.	c #C7C7C7",
"T.	c #D5D5D5",
"U.	c #BDBDBD",
"                                                                                                                                ",
". + + + + + + + + + + + + + + + + + + + + + + + + + + + + + + + + + + + + + + + + + + + + + + + + + + + + + + + + + + + + + + + ",
"@ # # # # # # # # # # # # # # # # # # # # # # # # # # # # # # # # # # # # # # # # # # # # # # # # # # # # # # # # # # # # # # $ ",
"% & * = = = = = = = = = = = = = = = = = = = = = = = = = = = = = = = = = = = = = = = = = = = = = = = = = = = = = = = = = = = - ; ",
"> , ' ) ! ~ { ! ~ { ! ! { ~ ! { ~ ! ~ ~ ! ~ { ! ! { ~ ! { ~ ! ~ ~ ! ~ { ! ! { ! ! { ~ ! ~ ~ ! ~ { ! ~ { ! ! { ~ ! ~ ~ ! ~ ] ^ / ",
"( _ : < [ } | [ } | } } | } [ | } [ | | [ } | } } 1 } [ | } [ | | [ } | [ } 1 } [ | } [ | | [ } | [ } 1 } } | } [ | | } 2 3 4 5 ",
"5 6 7 < 8 9 9 9 9 9 9 9 9 9 9 9 9 9 9 9 9 9 9 9 9 9 9 9 9 9 9 9 9 9 9 9 9 9 9 9 9 9 9 9 9 9 9 9 9 9 9 9 9 9 9 9 9 9 9 0 a b c d ",
"- e 2 f g h h 3 3 h 3 3 h 3 3 h h 3 h h 3 3 h 3 3 h 3 3 h 3 3 h h 3 3 h 3 3 h 3 3 h 3 3 h h 3 3 h 3 3 h 3 3 h 3 3 h h i j k l m ",
"n o p q r s t k u v w w v u k t s k x t k y v w w v u k t s k x z k y v w w v u w v y k z x k s t k u v w w v y k z x k A > B % ",
"5 _ q ) * C % D E F G G F E D % B D B % D E F G G F E D % C D m m D C F D G F G D F C D m m D C % D E F G G F E D % B D H I G E ",
"5 J q K A L d M l F l M d N M d L M N d M l F l M F l M d N M L d M l d M M F l M d N M L L M N d M l F l M d N M L L O P Q R S ",
"( ' T U V - ( > - - > - - > - - > ( n ( > - - > - - > - - > ( n ( > n ( > - - > - - > ( n ( > n ( > - - > - - > ( - > ( ; B B m ",
"* ) W X Y _ Z `  .J `  .J  .` Z _ ` _ Z `  .J `  .J  .` Z _ ` Z Z ` _ J `  .J  .` J  .` Z _ ` _ Z `  .J  .` J  .` Z _ ` r ..B m ",
"5 Z 9 ! c % l E m O C C O m E l d E d N E m M C C O B E l F E L N E % M E B O B E M % E L L E F l E B O C C M m E N d E P S C B ",
"5 J +.@./ d F N L % N N % L N F d N d F N L % N N % L N F d N d F N L F N N % L N F L N d d N L F N N % N N F L N F d l S Q #.R ",
"> $.7 i u %.&.&.; &.*.; %.*.%.%.*.&.%.&.*.%.&.*.%.&.*.%.%.*.&.%.*.&.%.&.*.%.&.*.%.%.*.%.%.*.&.%.&.*.; &.*.; %.*.%.%.&.%.% H E B ",
"* ) =.-.)  . .`  . .`  . .;., 4 V 4 4 4 4 >.4 4 4 4 4 4 >.4 4 >.4 4 4 4 V 4 4 4 4 4 4 4 >.4 4 >.,.'.). .`  ._ `  ._  . .;.!.B m ",
"> ~.8 h {.].> &.; - %.%.> ^./.(._.:.<.[.I I I I ^.}.|.I I [.Q :.:.1.$ 2.}.|.}.^.I $ 2.[.Q 3.Q Q #.R 5 4.; &.( 5.&.5 & &.O d B m ",
"6.Z +.~ 7.m % m m % m m B @ 8.9.0.1.:.1.H a.^.H a.:.3.H ^.2.3.|.2.3.2.|.|.3.:.3.H Q I ^.|.I |.# }.C {.c F m % m m % m % #.1.S P ",
"5 6 9 h k l N M O N l O N |.b.$ ].b c.c.r ^ d.r r d.^ r d.;.).;.c.).^ d.r r d.^ r d.;.).c.c.'.u !.k ) V &.O l l O l l O G |.D G ",
"n o p 0 6 t z x t t x t z 4.L = { e.f.g.h.h.i.h.h.i.g.h.g.g.h.g.g.h.h.i.h.h.i.g.h.g.g.h.g.j.k.U $.e l.~ v t t x z t x z k m.B % ",
"- j < n.d.k s o.{.x / / s > F = ! p.q.V y z >.s s ,.x y 4 t y r.V y t >.y s ,.x y >.t y V V ..- 7.V s.! k / x A o.y w o.t.6.B % ",
"6._ q ) * C % G E F G G % }.R F >.~ u.B D E % G G % E D % C D B m D C % G G F G G % C D m m 2.:.F ; v.'.m G % C D m B G a.^.D E ",
"5 J q K A N d M l d l M F I P m >.3 t.d M l d l M d l M d N M N L M l d M M d l M d N M L L E H d - w.d.&.M d N M L L O D Q R S ",
"( x.l.y.>.c * n c c n c c N % & 6 : >.n n = c n c c n c c n * = * n = c n c c n c c n * = * ].N &.{.z.q.= c c n * = * * m.% B m ",
"* ) =.l.e ). .^ r  .^ ^  .v M / y.X A.` ^ r  .^ ^  .r ^  .).^ ` ` ^ ). .^ r  .r ^  .).^ ` ` , c 5.$.B.U ` ^  .r ^ ` ).^ c.u.B m ",
"5 Z 9 ) * m N G C l E E N $ P M '.! o.d G B l E E l C G N % G F d G m N G E l C G N m G d d |.1.L %.C.c.% G l B G L F G S #.C B ",
"5 J +.K {.d F l N F N l % ^.C F 4 h u.F l N F N N F N l F L l d d l L F l N % N l F L l d d D #.M ( D.d.&.l F L l d d M S Q #.R ",
"> $.7 i y ; %.%.5.; &.5.; R B *.;.v.u %.%.5.; &.5.; &.; 5.%.; 5.%.%.5.; %.5.; &.5.; %.; 5.%.F E O c : ` ].5.; &.; 5.%.; d #.C B ",
"* ) W E.! Z Z _ Z J _ Z Z ,.O {.: f ~ Z _ Z J _ Z J _ Z J Z Z J Z _ Z J _ Z J _ Z J Z Z J Z ^ 7.].x.F.: 6 Z J _ Z J Z Z r u.B m ",
"> $.s.@.t.%.& l *.6.M M & #.E 5. .K x ].l &.6.M M 5 *.l & %.l 5.].l &.6.M O 5 O M 6.%.l ].].G #.l - : Z %.M 6.&.l m.5.l L % B m ",
"6.Z +.{ u.m % % % % % % m Q R B 4 a 7.m % % % % % % % % % % % % % % % % % % % % % % % % % % H I l & C.'.l % % % % % % F #.Q R S ",
"5 6 9 h k M l M O l M *.N 3.G L b 3 / N M O l M *.l l O M l O M l O O l M *.l M *.M l O M l C P O - U ;.%.*.l l O M l O E ^.D E ",
"n ] F.G.q.4 V r.4 4 r.4 V t.n w { s.q.r.r.4 V r.4 4 r.4 4 r.V 4 V r.4 V r.4 4 r.4 4 r.V 4 V y c n ;.-.@.>.4 4 r.V 4 V V s 5 B % ",
"- H.f : ,.t.A !...w 7.7.k ].G ( ] g r {.!...w 7.7.w u.!.k o.!./ {.!.t.k 7.u.w u.7.k t.!.{.{.> L l y 7 Y t.7.k ..!.A / !.4.].B % ",
"6._ +.) c C m G E % E E m }.# S >.! 7.B G C % E E % E G % B G B m G C % G E % E G % C G m m |.# H %.v.b % G % C G m B E a.|.D G ",
"5 J z.h A N d M M d l M F I G F >.3 t.d M l d l M d l M L N M N L M l d M M d l M L N M N N E #.d - w.c.&.M d N M L L O D 1.S P ",
"- I.-.g b !.!.= 7.!.= !.!.*.B & q.g b 4.4.7.!.= 7.7.= !.7.4.4.7.4.4.7.!.= 7.!.= !.7.= !.7.!.6.O 5.w p.I.u.!.7.= !.7.4.!.> L B m ",
"* A.1 8 I.c.^ '.d.r '.'.r s ; k D.T ] ^ '.c.r '.'.r d.'.r c.'.;.^ '.c.r '.d.r d.'.r c.'.^ ^ V = > _ < D.;.'.r c.'.^ ;.'., !.B m ",
"5 Z z.) * B d D C N G G L }.S l b ! t.F D C N G G N E D L m D % F D B L G E N E G L B D F F 2.1.L %.C.c.m G L C D d % D R H E B ",
"5 J +.K {.d F l N F l l % I S B 4 h ..F l N F l l F N l F L M d d l N F l l F N l F L M d L G #.M ( w.d.&.l F N l d d M P Q #.R ",
"> ~.G.v.s ].5.; m.].; ].5.P B &.r C.s ; ; m.].; ].].; ].].; 5.m.5.5.m.5.; ].].; ].].; 5.].5.d D d = g  .& ].].; ].].; 5.L S C B ",
"* ! J.E.~ J 6 Z J 6 Z J 6 , O A n.2 { J Z J 6 Z J 6 J J 6 J J 6 6 Z 6 6 Z J 6 J J 6 J J 6 6 ).o.> I.F.g $.J 6 J J 6 J J ` ..B m ",
"> 6 7 a u.O 5.d l ].L L 5.I G ; ).a u %.d M ].L L m.l d 5.O d &.%.d M ].L N m.N d ].M d %.%.S I % 5 y. .O L ].M d ; &.d % C B m ",
"5 Z +.a ..% % F F % F F m 1.R B 4 @.7.m F F % F F % F F % F F % % F F % F F % F F % F F % F R I N 6.D.'.M F % F F % % d R Q R S ",
"> 6 p.3 k O M O *.M M *.l a.G N b i {.l O *.M M *.M M *.O M O O M O *.M M *.M M *.M M *.O M C P O - U ^ %.*.M M *.O M *.C I G E ",
"n Y } 8 I., , ,.b , ,.b , A M u.h T I.,.,.b , ,.b b ,., b ,., b , ,.b , ,.b b ,.b b ,., b , t = 5 ).f 3 '.b b ,., b , , v - B % ",
"- I.E.w.r.!.t.* = / c * o.*.% - j U c...n 4.o.* c / = * t.!.n u...n 4.o.* c / c * o.4.n ....].F O A p.e !.* o.4.n ..7.* - %.B % ",
"6._ +.! = C m E C % E E m $ R % 4 { u.m C B F C C F B C % m C m % C B F C C F B C % B C % % I 1.% ; v.b F E % C E m B E H 2.P D ",
"5 J z.h A N L M M d l M d I P B z $.].3.H #.3.H R 3.a.#.a.a.#.H 3.#.#.3.H R 3.a.#.a.a.#.H a.1.$ P ( w.c.&.M L N O N N O D 1.S P ",
"- H.E.n.c.t...u.t.t.u.t...5.l % t.o.3.K.. + L.K.L.L.K.M.0.0.+ K.L.0.0.+ K.L.+ N.M.0.0.+ K.L.(.O.+ u 0 j o.t.t.u...t.....* l B % ",
"n Y } G.~., d.4 ,.c.>.>.d.s *.% c & 2.N.P.+ . + Q.P.M.R.L.N.R.K.0.K.. /.+ S._.R.R.L.N.R.0.0.S.T.U.@.p i b >.d.,.4 '.b 4 V = B m ",
"5 _ z.) n C F D E L G G d #.B 4.t ..( 6.M %.5 O O > &.M 6.; M ].m.M %.5 O *.> *.O 5 ; M m.m.O 5 V ~ q b m D d C D F m D #.a.E C ",
"5 J q K {.L d l l F l l F *.t.q.z.-.X l.T l.X T T X T T X l.T l.l.T l.l.T T X T T X T T l.l.T X E.X 3 x *.M F N M d L M P Q #.R ",
"> ~.s.C.z & m.].& & ].& & 6...c.o a @.@.a @.@.a @.@.a @.@.a @.@.@.a @.@.a @.@.a @.@.a @.@.a a @.{ o ).o.m.& & ].m.& ].m.M D C m ",
"* ! J.E.~ J 6 J J $.J J $.6 $.I.j j e e j j o j j o j j o e j e e j j o j j o j j o j j e e H.e e H.x.q.J J $.J J 6 6 J ` t.B m ",
"5 6 0 ~ !.N &.% d ; F % ; L m &.l m M *.m L %.% F ; d % &.N m M O m N %.% F ; F % %.N m O O m N &.% d ; F % %.L m *.M m C G B m ",
"5 Z +.a t.% % d d % d d % d L % F L F % d d % d d % d d % F L F F L d % d d % d d % F L F F L F % d d % d d % d L F F L R Q R S ",
"> 6 p.3 w *.O O &.O O &.O M *.*.M *.*.O O &.O O &.O M &.*.M *.*.O O &.O O &.O M &.O M *.*.M *.*.O O &.O O &.O M *.*.M *.B 3.G C ",
"* A.| T e c.c.d.c.c.d.c.c.d.c.;.d.d.;.c.d.c.c.d.c.c.d.c.c.d.c.;.c.d.;.c.d.c.c.d.c.c.d.c.;.d.d.;.c.d.c.c.d.c.c.d.c.;.d.c.>.* B % ",
"( x.X C.x n !.5 ( 7.> > 7.- 5 4.* 5 c 4.5 - 7.> > u.( 5 !.* 5 = = 5 n 7.5 ( u.( 5 7.n 5 = = 5 n !.5 ( u.> > 7.- 5 4.c 5 6.*.B % ",
"6.Z +.! 4.B m C B % C C % B C m B C m m C B % C C % B C m B C m m C B % C C % B C % B C m m C B m C B % C C % B C m m C H 2.P D ",
"5 6 z.h k l L M M L l O L l O N N O l N M M L M O L l O N N O l N M M L M O L l O N l O l N M M L M O L l O N l O N N O G 2.P D ",
"- j 2 g b u.7.!.u.u.!.u.u.!.7.u.7.7.u.7.!.u.u.!.u.u.!.u.u.!.7.u.7.!.u.u.!.u.u.!.u.u.!.7.u.7.!.u.7.!.u.u.!.u.u.!.7.u.7.7.* N R C "};
