/* XPM */
static char * location_icon1_xpm[] = {
"16 16 224 2",
"  	c #72A9BF",
". 	c #73A9C0",
"+ 	c #6DA8BD",
"@ 	c #3F7398",
"# 	c #316591",
"$ 	c #30608D",
"% 	c #2A5179",
"& 	c #26486D",
"* 	c #26486E",
"= 	c #305A87",
"- 	c #325D8B",
"; 	c #325D8C",
"> 	c #336390",
", 	c #376A93",
"' 	c #679CB6",
") 	c #41759B",
"! 	c #3B6A94",
"~ 	c #3A6A92",
"{ 	c #396D96",
"] 	c #325D89",
"^ 	c #2D5781",
"/ 	c #7D5A67",
"( 	c #BC9191",
"_ 	c #C4342D",
": 	c #88313D",
"< 	c #474F71",
"[ 	c #366B92",
"} 	c #3A7999",
"| 	c #67A0B7",
"1 	c #4982A2",
"2 	c #366694",
"3 	c #32618F",
"4 	c #335F8D",
"5 	c #396B94",
"6 	c #31658D",
"7 	c #955D64",
"8 	c #E4B3B2",
"9 	c #DC7B79",
"0 	c #C5322C",
"a 	c #CE3730",
"b 	c #D93B33",
"c 	c #BB3835",
"d 	c #688092",
"e 	c #6099B0",
"f 	c #4585A1",
"g 	c #376B95",
"h 	c #336291",
"i 	c #558AA8",
"j 	c #3B7797",
"k 	c #659FB6",
"l 	c #39647B",
"m 	c #DEB5B3",
"n 	c #D95F5B",
"o 	c #B06361",
"p 	c #CACACA",
"q 	c #BCA9A8",
"r 	c #CA3B34",
"s 	c #89343F",
"t 	c #366A94",
"u 	c #397597",
"v 	c #387899",
"w 	c #4C87A4",
"x 	c #6CA7BC",
"y 	c #6AA3B8",
"z 	c #40799B",
"A 	c #912A23",
"B 	c #E08784",
"C 	c #B06766",
"D 	c #EBEBEB",
"E 	c #FDFDFD",
"F 	c #CE3630",
"G 	c #C7352E",
"H 	c #284D74",
"I 	c #346291",
"J 	c #346593",
"K 	c #40799D",
"L 	c #407D9B",
"M 	c #3C7A98",
"N 	c #3D7C94",
"O 	c #8F231E",
"P 	c #D93A33",
"Q 	c #9D7E7D",
"R 	c #FEFEFE",
"S 	c #CBCBCB",
"T 	c #C5352E",
"U 	c #C6352E",
"V 	c #274D74",
"W 	c #367096",
"X 	c #377296",
"Y 	c #6095AF",
"Z 	c #D83A32",
"` 	c #AB6867",
" .	c #ECECED",
"..	c #FDFEFE",
"+.	c #FEFDFE",
"@.	c #B8AAAA",
"#.	c #CB362F",
"$.	c #336391",
"%.	c #346592",
"&.	c #356A94",
"*.	c #366B95",
"=.	c #376E97",
"-.	c #4E536D",
";.	c #D13730",
">.	c #D53A32",
",.	c #B5817F",
"'.	c #E6E6E6",
").	c #CDC4C5",
"!.	c #C63F39",
"~.	c #96383D",
"{.	c #36708C",
"].	c #377392",
"^.	c #387692",
"/.	c #387793",
"(.	c #43829F",
"_.	c #3E7D9B",
":.	c #43839F",
"<.	c #558296",
"[.	c #C53732",
"}.	c #AD2C26",
"|.	c #C0332C",
"1.	c #7C3F4A",
"2.	c #387792",
"3.	c #397892",
"4.	c #79B0C4",
"5.	c #64A0B7",
"6.	c #508FA8",
"7.	c #639DB3",
"8.	c #91393B",
"9.	c #D93A32",
"0.	c #C6362F",
"a.	c #2F637A",
"b.	c #3B7A97",
"c.	c #407D98",
"d.	c #47859D",
"e.	c #387694",
"f.	c #3E7B98",
"g.	c #3D7A96",
"h.	c #397593",
"i.	c #2D5F73",
"j.	c #C3342D",
"k.	c #EFCCCB",
"l.	c #D93C33",
"m.	c #6B3749",
"n.	c #3B759A",
"o.	c #3D7D9C",
"p.	c #5994AC",
"q.	c #649DB2",
"r.	c #45829B",
"s.	c #3F7D9A",
"t.	c #3B7996",
"u.	c #397594",
"v.	c #3C7993",
"w.	c #6B3D4A",
"x.	c #DC645F",
"y.	c #F8EBEB",
"z.	c #E7A6A4",
"A.	c #AD2D27",
"B.	c #326087",
"C.	c #386E98",
"D.	c #397599",
"E.	c #3B7399",
"F.	c #387396",
"G.	c #397694",
"H.	c #61A1B8",
"I.	c #44829D",
"J.	c #3A7695",
"K.	c #3A7896",
"L.	c #397893",
"M.	c #436C83",
"N.	c #A23E3E",
"O.	c #DD6C68",
"P.	c #CA352F",
"Q.	c #645C71",
"R.	c #3A7297",
"S.	c #386D97",
"T.	c #386F97",
"U.	c #366E97",
"V.	c #376C96",
"W.	c #4C87A5",
"X.	c #397697",
"Y.	c #3A7998",
"Z.	c #3D7C9A",
"`.	c #3D7E96",
" +	c #8DA7B1",
".+	c #948C8F",
"++	c #D13831",
"@+	c #9F3A3A",
"#+	c #A1B3BD",
"$+	c #5D91AA",
"%+	c #5C90AE",
"&+	c #376B96",
"*+	c #376C97",
"=+	c #427C9B",
"-+	c #5988A6",
";+	c #678DA5",
">+	c #65889C",
",+	c #9CAFBB",
"'+	c #9FB1C0",
")+	c #356C8A",
"!+	c #9F383B",
"~+	c #28536F",
"{+	c #6C8DA8",
"]+	c #B6C4CF",
"^+	c #427A9F",
"/+	c #518AA8",
"(+	c #619AB3",
"_+	c #427E9E",
":+	c #5F95AF",
"<+	c #8AB2C4",
"[+	c #7399AE",
"}+	c #5F8AA2",
"|+	c #819FAE",
"1+	c #C8D3DA",
"2+	c #8EB0C1",
"3+	c #4F819A",
"4+	c #4D88A6",
"5+	c #C0CCD6",
"6+	c #AEC6D2",
"7+	c #5592AC",
"8+	c #558FAC",
"9+	c #6DA3BA",
"0+	c #6AA4B9",
"a+	c #76ADC2",
"  . + @ # $ % & * = - ; > , ' ) ",
"! ~ { ] ^ / ( _ _ : < [ } | 1 2 ",
"3 4 5 6 7 8 9 0 a b c d e f g h ",
"i j k l m n o p q r b s t u v w ",
"x y z A B C D E E q F G H I J K ",
"L M N O P Q R R E S T U V h h h ",
"W X Y O Z `  ...+.@.#.U H $.%.%.",
"&.*.=.-.;.>.,.'.).!.P ~.{.].^./.",
"(._.:.<.[.Z ;.}.|.b >.1.2.2.3.3.",
"4.5.6.7.8.Z Z b P 9.0.a.b./.c.d.",
"e.f.g.h.i.j.Z k.l.b m.n.o.p.q.r.",
"s.t.u.u.v.w.x.y.z.A.B.C.D.E.F.G.",
"H.I.J.K.L.M.N.O.P.Q.R.S.T.U.V.V.",
"W.X.Y.Z.`. +.+++@+#+$+%+&+V.V.*+",
"=+-+;+>+,+'+)+!+~+{+]+^+/+(+_+X.",
":+<+[+}+|+1+2+3+4+5+6+7+8+9+0+a+"};
