/* XPM */
static char * map_wall_xpm[] = {
"16 16 93 2",
"  	c #DCDCDC",
". 	c #CECECE",
"+ 	c #DADADA",
"@ 	c #EBEBEB",
"# 	c #EEEEEE",
"$ 	c #E4E4E4",
"% 	c #D5D5D5",
"& 	c #C3C3C3",
"* 	c #DFDFDF",
"= 	c #E6E6E6",
"- 	c #D0D0D0",
"; 	c #CCCCCC",
"> 	c #DEDEDE",
", 	c #D6D6D6",
"' 	c #D4D4D4",
") 	c #DDDDDD",
"! 	c #CDCDCD",
"~ 	c #E8E8E8",
"{ 	c #F7F7F7",
"] 	c #F5F5F5",
"^ 	c #E0E0E0",
"/ 	c #C6C6C6",
"( 	c #B5B5B5",
"_ 	c #A6A6A6",
": 	c #E3E3E3",
"< 	c #D3D3D3",
"[ 	c #ABABAB",
"} 	c #D9D9D9",
"| 	c #ECECEC",
"1 	c #FCFCFC",
"2 	c #F3F3F3",
"3 	c #E2E2E2",
"4 	c #C7C7C7",
"5 	c #ACACAC",
"6 	c #ADADAD",
"7 	c #989898",
"8 	c #B9B9B9",
"9 	c #D8D8D8",
"0 	c #DBDBDB",
"a 	c #CBCBCB",
"b 	c #C1C1C1",
"c 	c #A4A4A4",
"d 	c #B6B6B6",
"e 	c #A9A9A9",
"f 	c #C5C5C5",
"g 	c #E5E5E5",
"h 	c #D7D7D7",
"i 	c #C8C8C8",
"j 	c #F0F0F0",
"k 	c #FAFAFA",
"l 	c #D2D2D2",
"m 	c #CFCFCF",
"n 	c #FBFBFB",
"o 	c #F9F9F9",
"p 	c #EDEDED",
"q 	c #CACACA",
"r 	c #F4F4F4",
"s 	c #A0A0A0",
"t 	c #8D8D8D",
"u 	c #8E8E8E",
"v 	c #B8B8B8",
"w 	c #BFBFBF",
"x 	c #A1A1A1",
"y 	c #BBBBBB",
"z 	c #C4C4C4",
"A 	c #D1D1D1",
"B 	c #E7E7E7",
"C 	c #AFAFAF",
"D 	c #9C9C9C",
"E 	c #F2F2F2",
"F 	c #F6F6F6",
"G 	c #B2B2B2",
"H 	c #9A9A9A",
"I 	c #B1B1B1",
"J 	c #A3A3A3",
"K 	c #A7A7A7",
"L 	c #BDBDBD",
"M 	c #BABABA",
"N 	c #C9C9C9",
"O 	c #EFEFEF",
"P 	c #E1E1E1",
"Q 	c #F1F1F1",
"R 	c #EAEAEA",
"S 	c #E9E9E9",
"T 	c #959595",
"U 	c #868686",
"V 	c #7D7D7D",
"W 	c #B0B0B0",
"X 	c #A8A8A8",
"Y 	c #999999",
"Z 	c #919191",
"` 	c #909090",
" .	c #AEAEAE",
"  . + @ # # $ % & * = - ; > , ' ",
") ! ~ = { ] ~ ^ / + + ( _ + : < ",
"; [ } | 1 2 ] 3 4 & 5 6 7 ( % ! ",
"! 8 9   0   $ ! a b c d e b f ( ",
", ^ ' & / % $ g h 3   . .   = = ",
": ' ! i 4 j k | 3 ' - l m 2 n @ ",
"! 8 / ! ; o 2 p q 8 ; , < k r p ",
"s t 7 u v f w 8 e s e x f m f y ",
"> } = r ] ] ~ , z $ p A 4 > l % ",
"% f B $ { ] @ ^ z % - C D .   . ",
"; 5 0 p o E F : ; f 6 G H ( < ! ",
"y I m A . - + q q b J I K L M 5 ",
"3 ~ + a N * O O P p P 9 % g Q O ",
"$ A - i / 2 n | P A A A ; r n @ ",
"; v N . - o E R / d ; l h k j S ",
"T u U V W v 5 X Y t Z ` v (  .X "};
